  0
SECTION
  2
HEADER
  9
$ACADVER
  1
AC1015
  9
$ACADMAINTVER
 70
     6
  9
$DWGCODEPAGE
  3
ANSI_1252
  9
$INSBASE
 10
0.0
 20
0.0
 30
0.0
  9
$EXTMIN
 10
1.000000000000000E+20
 20
1.000000000000000E+20
 30
1.000000000000000E+20
  9
$EXTMAX
 10
-1.000000000000000E+20
 20
-1.000000000000000E+20
 30
-1.000000000000000E+20
  9
$LIMMIN
 10
0.0
 20
0.0
  9
$LIMMAX
 10
12.0
 20
9.0
  9
$ORTHOMODE
 70
     1
  9
$REGENMODE
 70
     1
  9
$FILLMODE
 70
     1
  9
$QTEXTMODE
 70
     0
  9
$MIRRTEXT
 70
     0
  9
$LTSCALE
 40
1.0
  9
$ATTMODE
 70
     1
  9
$TEXTSIZE
 40
15.0
  9
$TRACEWID
 40
0.05
  9
$TEXTSTYLE
  7
Standard
  9
$CLAYER
  8
TOP_COPPER
  9
$CELTYPE
  6
ByLayer
  9
$CECOLOR
 62
   256
  9
$CELTSCALE
 40
1.0
  9
$DISPSILH
 70
     0
  9
$DIMSCALE
 40
1.0
  9
$DIMASZ
 40
0.18
  9
$DIMEXO
 40
0.0625
  9
$DIMDLI
 40
0.38
  9
$DIMRND
 40
0.0
  9
$DIMDLE
 40
0.0
  9
$DIMEXE
 40
0.18
  9
$DIMTP
 40
0.0
  9
$DIMTM
 40
0.0
  9
$DIMTXT
 40
0.18
  9
$DIMCEN
 40
0.09
  9
$DIMTSZ
 40
0.0
  9
$DIMTOL
 70
     0
  9
$DIMLIM
 70
     0
  9
$DIMTIH
 70
     1
  9
$DIMTOH
 70
     1
  9
$DIMSE1
 70
     0
  9
$DIMSE2
 70
     0
  9
$DIMTAD
 70
     0
  9
$DIMZIN
 70
     0
  9
$DIMBLK
  1

  9
$DIMASO
 70
     1
  9
$DIMSHO
 70
     1
  9
$DIMPOST
  1

  9
$DIMAPOST
  1

  9
$DIMALT
 70
     0
  9
$DIMALTD
 70
     2
  9
$DIMALTF
 40
25.4
  9
$DIMLFAC
 40
1.0
  9
$DIMTOFL
 70
     0
  9
$DIMTVP
 40
0.0
  9
$DIMTIX
 70
     0
  9
$DIMSOXD
 70
     0
  9
$DIMSAH
 70
     0
  9
$DIMBLK1
  1

  9
$DIMBLK2
  1

  9
$DIMSTYLE
  2
Standard
  9
$DIMCLRD
 70
     0
  9
$DIMCLRE
 70
     0
  9
$DIMCLRT
 70
     0
  9
$DIMTFAC
 40
1.0
  9
$DIMGAP
 40
0.09
  9
$DIMJUST
 70
     0
  9
$DIMSD1
 70
     0
  9
$DIMSD2
 70
     0
  9
$DIMTOLJ
 70
     1
  9
$DIMTZIN
 70
     0
  9
$DIMALTZ
 70
     0
  9
$DIMALTTZ
 70
     0
  9
$DIMUPT
 70
     0
  9
$DIMDEC
 70
     4
  9
$DIMTDEC
 70
     4
  9
$DIMALTU
 70
     2
  9
$DIMALTTD
 70
     2
  9
$DIMTXSTY
  7
Standard
  9
$DIMAUNIT
 70
     0
  9
$DIMADEC
 70
     0
  9
$DIMALTRND
 40
0.0
  9
$DIMAZIN
 70
     0
  9
$DIMDSEP
 70
    46
  9
$DIMATFIT
 70
     3
  9
$DIMFRAC
 70
     0
  9
$DIMLDRBLK
  1

  9
$DIMLUNIT
 70
     2
  9
$DIMLWD
 70
    -2
  9
$DIMLWE
 70
    -2
  9
$DIMTMOVE
 70
     0
  9
$LUNITS
 70
     2
  9
$LUPREC
 70
     4
  9
$SKETCHINC
 40
0.1
  9
$FILLETRAD
 40
2.0
  9
$AUNITS
 70
     0
  9
$AUPREC
 70
     0
  9
$MENU
  1
.
  9
$ELEVATION
 40
0.0
  9
$PELEVATION
 40
0.0
  9
$THICKNESS
 40
0.0
  9
$LIMCHECK
 70
     0
  9
$CHAMFERA
 40
0.0
  9
$CHAMFERB
 40
0.0
  9
$CHAMFERC
 40
0.0
  9
$CHAMFERD
 40
0.0
  9
$SKPOLY
 70
     0
  9
$TDCREATE
 40
2452642.855050937
  9
$TDUCREATE
 40
2452643.063384271
  9
$TDUPDATE
 40
2456687.477763681
  9
$TDUUPDATE
 40
2456687.686097014
  9
$TDINDWG
 40
0.0652166204
  9
$TDUSRTIMER
 40
2456687.683839734
  9
$USRTIMER
 70
     1
  9
$ANGBASE
 50
0.0
  9
$ANGDIR
 70
     0
  9
$PDMODE
 70
     0
  9
$PDSIZE
 40
0.0
  9
$PLINEWID
 40
0.0
  9
$SPLFRAME
 70
     0
  9
$SPLINETYPE
 70
     6
  9
$SPLINESEGS
 70
     8
  9
$HANDSEED
  5
E75
  9
$SURFTAB1
 70
     6
  9
$SURFTAB2
 70
     6
  9
$SURFTYPE
 70
     6
  9
$SURFU
 70
     6
  9
$SURFV
 70
     6
  9
$UCSBASE
  2

  9
$UCSNAME
  2

  9
$UCSORG
 10
0.0
 20
0.0
 30
0.0
  9
$UCSXDIR
 10
1.0
 20
0.0
 30
0.0
  9
$UCSYDIR
 10
0.0
 20
1.0
 30
0.0
  9
$UCSORTHOREF
  2

  9
$UCSORTHOVIEW
 70
     0
  9
$UCSORGTOP
 10
0.0
 20
0.0
 30
0.0
  9
$UCSORGBOTTOM
 10
0.0
 20
0.0
 30
0.0
  9
$UCSORGLEFT
 10
0.0
 20
0.0
 30
0.0
  9
$UCSORGRIGHT
 10
0.0
 20
0.0
 30
0.0
  9
$UCSORGFRONT
 10
0.0
 20
0.0
 30
0.0
  9
$UCSORGBACK
 10
0.0
 20
0.0
 30
0.0
  9
$PUCSBASE
  2

  9
$PUCSNAME
  2

  9
$PUCSORG
 10
0.0
 20
0.0
 30
0.0
  9
$PUCSXDIR
 10
1.0
 20
0.0
 30
0.0
  9
$PUCSYDIR
 10
0.0
 20
1.0
 30
0.0
  9
$PUCSORTHOREF
  2

  9
$PUCSORTHOVIEW
 70
     0
  9
$PUCSORGTOP
 10
0.0
 20
0.0
 30
0.0
  9
$PUCSORGBOTTOM
 10
0.0
 20
0.0
 30
0.0
  9
$PUCSORGLEFT
 10
0.0
 20
0.0
 30
0.0
  9
$PUCSORGRIGHT
 10
0.0
 20
0.0
 30
0.0
  9
$PUCSORGFRONT
 10
0.0
 20
0.0
 30
0.0
  9
$PUCSORGBACK
 10
0.0
 20
0.0
 30
0.0
  9
$USERI1
 70
     0
  9
$USERI2
 70
     0
  9
$USERI3
 70
     0
  9
$USERI4
 70
     0
  9
$USERI5
 70
     0
  9
$USERR1
 40
0.0
  9
$USERR2
 40
0.0
  9
$USERR3
 40
0.0
  9
$USERR4
 40
0.0
  9
$USERR5
 40
0.0
  9
$WORLDVIEW
 70
     1
  9
$SHADEDGE
 70
     3
  9
$SHADEDIF
 70
    70
  9
$TILEMODE
 70
     1
  9
$MAXACTVP
 70
    64
  9
$PINSBASE
 10
0.0
 20
0.0
 30
0.0
  9
$PLIMCHECK
 70
     0
  9
$PEXTMIN
 10
0.0
 20
0.0
 30
0.0
  9
$PEXTMAX
 10
0.0
 20
0.0
 30
0.0
  9
$PLIMMIN
 10
0.0
 20
0.0
  9
$PLIMMAX
 10
0.0
 20
0.0
  9
$UNITMODE
 70
     0
  9
$VISRETAIN
 70
     1
  9
$PLINEGEN
 70
     0
  9
$PSLTSCALE
 70
     1
  9
$TREEDEPTH
 70
  3020
  9
$CMLSTYLE
  2
Standard
  9
$CMLJUST
 70
     0
  9
$CMLSCALE
 40
1.0
  9
$PROXYGRAPHICS
 70
     1
  9
$MEASUREMENT
 70
     0
  9
$CELWEIGHT
370
    -1
  9
$ENDCAPS
280
     0
  9
$JOINSTYLE
280
     0
  9
$LWDISPLAY
290
     0
  9
$INSUNITS
 70
     1
  9
$HYPERLINKBASE
  1

  9
$STYLESHEET
  1

  9
$XEDIT
290
     1
  9
$CEPSNTYPE
380
     0
  9
$PSTYLEMODE
290
     1
  9
$FINGERPRINTGUID
  2
{FDEAD576-A652-11D2-9A35-0060089B3A3F}
  9
$VERSIONGUID
  2
{FBC2AE19-5C5C-49EC-81BC-71B1A3362A02}
  9
$EXTNAMES
290
     1
  9
$PSVPSCALE
 40
0.0
  9
$OLESTARTUP
290
     0
  0
ENDSEC
  0
SECTION
  2
CLASSES
  0
CLASS
  1
ACDBDICTIONARYWDFLT
  2
AcDbDictionaryWithDefault
  3
ObjectDBX Classes
 90
        0
280
     0
281
     0
  0
CLASS
  1
ACDBPLACEHOLDER
  2
AcDbPlaceHolder
  3
ObjectDBX Classes
 90
        0
280
     0
281
     0
  0
CLASS
  1
LAYOUT
  2
AcDbLayout
  3
ObjectDBX Classes
 90
        0
280
     0
281
     0
  0
CLASS
  1
DICTIONARYVAR
  2
AcDbDictionaryVar
  3
ObjectDBX Classes
 90
        0
280
     0
281
     0
  0
CLASS
  1
TABLESTYLE
  2
AcDbTableStyle
  3
ObjectDBX Classes
 90
     4095
280
     0
281
     0
  0
CLASS
  1
MATERIAL
  2
AcDbMaterial
  3
ObjectDBX Classes
 90
     1153
280
     0
281
     0
  0
CLASS
  1
VISUALSTYLE
  2
AcDbVisualStyle
  3
ObjectDBX Classes
 90
     4095
280
     0
281
     0
  0
CLASS
  1
SCALE
  2
AcDbScale
  3
ObjectDBX Classes
 90
     1153
280
     0
281
     0
  0
CLASS
  1
CELLSTYLEMAP
  2
AcDbCellStyleMap
  3
ObjectDBX Classes
 90
     1152
280
     0
281
     0
  0
CLASS
  1
RASTERVARIABLES
  2
AcDbRasterVariables
  3
ISM
 90
        0
280
     0
281
     0
  0
ENDSEC
  0
SECTION
  2
TABLES
  0
TABLE
  2
VPORT
  5
8
330
0
100
AcDbSymbolTable
 70
     1
  0
VPORT
  5
94
330
8
100
AcDbSymbolTableRecord
100
AcDbViewportTableRecord
  2
*Active
 70
     0
 10
0.0
 20
0.0
 11
1.0
 21
1.0
 12
94.77777373074629
 22
43.25089448589112
 13
0.0
 23
0.0
 14
0.5
 24
0.5
 15
0.5
 25
0.5
 16
0.0
 26
0.0
 36
1.0
 17
-27.66959356598011
 27
-19.53870295786201
 37
0.0
 40
268.523416157493
 41
2.25531914893617
 42
50.0
 43
0.0
 44
0.0
 50
0.0
 51
0.0
 71
    16
 72
  1000
 73
     1
 74
     3
 75
     0
 76
     0
 77
     0
 78
     0
281
     0
 65
     1
110
0.0
120
0.0
130
0.0
111
1.0
121
0.0
131
0.0
112
0.0
122
1.0
132
0.0
 79
     0
146
0.0
  0
ENDTAB
  0
TABLE
  2
LTYPE
  5
5
330
0
100
AcDbSymbolTable
 70
     1
  0
LTYPE
  5
14
330
5
100
AcDbSymbolTableRecord
100
AcDbLinetypeTableRecord
  2
ByBlock
 70
     0
  3

 72
    65
 73
     0
 40
0.0
  0
LTYPE
  5
15
330
5
100
AcDbSymbolTableRecord
100
AcDbLinetypeTableRecord
  2
ByLayer
 70
     0
  3

 72
    65
 73
     0
 40
0.0
  0
LTYPE
  5
16
330
5
100
AcDbSymbolTableRecord
100
AcDbLinetypeTableRecord
  2
Continuous
 70
     0
  3
Solid line
 72
    65
 73
     0
 40
0.0
  0
ENDTAB
  0
TABLE
  2
LAYER
  5
2
102
{ACAD_XDICTIONARY
360
FB
102
}
330
0
100
AcDbSymbolTable
 70
     7
  0
LAYER
  5
10
330
2
100
AcDbSymbolTableRecord
100
AcDbLayerTableRecord
  2
0
 70
     0
 62
     7
  6
Continuous
370
    -3
390
F
  0
LAYER
  5
FE
330
2
100
AcDbSymbolTableRecord
100
AcDbLayerTableRecord
  2
TOP_COPPER
 70
     0
 62
     1
  6
Continuous
370
    -3
390
F
1001
AcAecLayerStandard
1000

1000

  0
LAYER
  5
100
330
2
100
AcDbSymbolTableRecord
100
AcDbLayerTableRecord
  2
BOTTOM_COPPER
 70
     0
 62
     3
  6
Continuous
370
    -3
390
F
1001
AcAecLayerStandard
1000

1000

  0
LAYER
  5
101
330
2
100
AcDbSymbolTableRecord
100
AcDbLayerTableRecord
  2
DRILL
 70
     0
 62
     2
  6
Continuous
370
    -3
390
F
1001
AcAecLayerStandard
1000

1000

  0
LAYER
  5
102
330
2
100
AcDbSymbolTableRecord
100
AcDbLayerTableRecord
  2
PTH
 70
     0
 62
     4
  6
Continuous
370
    -3
390
F
1001
AcAecLayerStandard
1000

1000

  0
LAYER
  5
DB7
330
2
100
AcDbSymbolTableRecord
100
AcDbLayerTableRecord
  2
TOP_SOLDERMASK
 70
     0
 62
     6
  6
Continuous
370
    -3
390
F
1001
AcAecLayerStandard
1000

1000

  0
LAYER
  5
DB8
330
2
100
AcDbSymbolTableRecord
100
AcDbLayerTableRecord
  2
BOTTOM_SOLDERMASK
 70
     0
 62
     5
  6
Continuous
370
    -3
390
F
1001
AcAecLayerStandard
1000

1000

  0
ENDTAB
  0
TABLE
  2
STYLE
  5
3
330
0
100
AcDbSymbolTable
 70
     1
  0
STYLE
  5
11
330
3
100
AcDbSymbolTableRecord
100
AcDbTextStyleTableRecord
  2
Standard
 70
     0
 40
0.0
 41
1.0
 50
0.0
 71
     0
 42
15.0
  3
txt
  4

  0
ENDTAB
  0
TABLE
  2
VIEW
  5
6
330
0
100
AcDbSymbolTable
 70
     0
  0
ENDTAB
  0
TABLE
  2
UCS
  5
7
330
0
100
AcDbSymbolTable
 70
     0
  0
ENDTAB
  0
TABLE
  2
APPID
  5
9
330
0
100
AcDbSymbolTable
 70
     2
  0
APPID
  5
12
330
9
100
AcDbSymbolTableRecord
100
AcDbRegAppTableRecord
  2
ACAD
 70
     0
  0
APPID
  5
FF
330
9
100
AcDbSymbolTableRecord
100
AcDbRegAppTableRecord
  2
AcAecLayerStandard
 70
     0
  0
ENDTAB
  0
TABLE
  2
DIMSTYLE
  5
A
330
0
100
AcDbSymbolTable
 70
     1
100
AcDbDimStyleTable
  0
DIMSTYLE
105
27
330
A
100
AcDbSymbolTableRecord
100
AcDbDimStyleTableRecord
  2
Standard
 70
     0
178
     0
340
11
  0
ENDTAB
  0
TABLE
  2
BLOCK_RECORD
  5
1
330
0
100
AcDbSymbolTable
 70
     2
  0
BLOCK_RECORD
  5
1F
330
1
100
AcDbSymbolTableRecord
100
AcDbBlockTableRecord
  2
*Model_Space
340
22
  0
BLOCK_RECORD
  5
58
330
1
100
AcDbSymbolTableRecord
100
AcDbBlockTableRecord
  2
*Paper_Space
340
59
  0
BLOCK_RECORD
  5
5D
330
1
100
AcDbSymbolTableRecord
100
AcDbBlockTableRecord
  2
*Paper_Space0
340
5E
  0
ENDTAB
  0
ENDSEC
  0
SECTION
  2
BLOCKS
  0
BLOCK
  5
20
330
1F
100
AcDbEntity
  8
0
100
AcDbBlockBegin
  2
*Model_Space
 70
     0
 10
0.0
 20
0.0
 30
0.0
  3
*Model_Space
  1

  0
ENDBLK
  5
21
330
1F
100
AcDbEntity
  8
0
100
AcDbBlockEnd
  0
BLOCK
  5
5A
330
58
100
AcDbEntity
 67
     1
  8
0
100
AcDbBlockBegin
  2
*Paper_Space
 70
     0
 10
0.0
 20
0.0
 30
0.0
  3
*Paper_Space
  1

  0
ENDBLK
  5
5B
330
58
100
AcDbEntity
 67
     1
  8
0
100
AcDbBlockEnd
  0
BLOCK
  5
5F
330
5D
100
AcDbEntity
  8
0
100
AcDbBlockBegin
  2
*Paper_Space0
 70
     0
 10
0.0
 20
0.0
 30
0.0
  3
*Paper_Space0
  1

  0
ENDBLK
  5
60
330
5D
100
AcDbEntity
  8
0
100
AcDbBlockEnd
  0
ENDSEC
  0
SECTION
  2
ENTITIES
  0
CIRCLE
  5
E5
330
1F
100
AcDbEntity
  8
0
100
AcDbCircle
 10
0.0
 20
0.0
 30
0.0
 40
1.0
  0
CIRCLE
  5
E6
330
1F
100
AcDbEntity
  8
0
100
AcDbCircle
 10
0.0
 20
0.0
 30
0.0
 40
1.508
  0
CIRCLE
  5
E7
330
1F
100
AcDbEntity
  8
0
100
AcDbCircle
 10
0.0
 20
0.0
 30
0.0
 40
2.016
  0
CIRCLE
  5
E8
330
1F
100
AcDbEntity
  8
0
100
AcDbCircle
 10
0.0
 20
0.0
 30
0.0
 40
2.524
  0
CIRCLE
  5
E9
330
1F
100
AcDbEntity
  8
0
100
AcDbCircle
 10
0.0
 20
0.0
 30
0.0
 40
3.032
  0
CIRCLE
  5
EA
330
1F
100
AcDbEntity
  8
0
100
AcDbCircle
 10
0.0
 20
0.0
 30
0.0
 40
3.54
  0
CIRCLE
  5
EE
330
1F
100
AcDbEntity
  8
0
100
AcDbCircle
 10
0.0
 20
0.0
 30
0.0
 40
4.048
  0
CIRCLE
  5
EF
330
1F
100
AcDbEntity
  8
0
100
AcDbCircle
 10
0.0
 20
0.0
 30
0.0
 40
4.556
  0
CIRCLE
  5
F0
330
1F
100
AcDbEntity
  8
0
100
AcDbCircle
 10
0.0
 20
0.0
 30
0.0
 40
5.064
  0
CIRCLE
  5
F1
330
1F
100
AcDbEntity
  8
0
100
AcDbCircle
 10
0.0
 20
0.0
 30
0.0
 40
5.572
  0
CIRCLE
  5
F2
330
1F
100
AcDbEntity
  8
0
100
AcDbCircle
 10
0.0
 20
0.0
 30
0.0
 40
6.08
  0
CIRCLE
  5
F3
330
1F
100
AcDbEntity
  8
0
100
AcDbCircle
 10
0.0
 20
0.0
 30
0.0
 40
6.588
  0
CIRCLE
  5
F4
330
1F
100
AcDbEntity
  8
0
100
AcDbCircle
 10
0.0
 20
0.0
 30
0.0
 40
7.096
  0
CIRCLE
  5
F5
330
1F
100
AcDbEntity
  8
0
100
AcDbCircle
 10
0.0
 20
0.0
 30
0.0
 40
7.604
  0
CIRCLE
  5
F6
330
1F
100
AcDbEntity
  8
0
100
AcDbCircle
 10
0.0
 20
0.0
 30
0.0
 40
8.112
  0
CIRCLE
  5
F7
330
1F
100
AcDbEntity
  8
0
100
AcDbCircle
 10
0.0
 20
0.0
 30
0.0
 40
8.620000000000001
  0
CIRCLE
  5
F8
330
1F
100
AcDbEntity
  8
0
100
AcDbCircle
 10
0.0
 20
0.0
 30
0.0
 40
9.128
  0
CIRCLE
  5
F9
330
1F
100
AcDbEntity
  8
0
100
AcDbCircle
 10
0.0
 20
0.0
 30
0.0
 40
9.636
  0
CIRCLE
  5
FA
330
1F
100
AcDbEntity
  8
0
100
AcDbCircle
 10
0.0
 20
0.0
 30
0.0
 40
10.144
  0
LWPOLYLINE
  5
11B
330
1F
100
AcDbEntity
  8
0
100
AcDbPolyline
 90
       38
 70
     0
 43
0.0
 10
0.0
 20
1.0
 42
1.0
 10
0.0
 20
-1.0
 42
0.9999999999999997
 10
0.0
 20
1.508
 42
1.0
 10
0.0
 20
-1.508
 42
0.9999999999999994
 10
0.0
 20
2.016
 42
1.000000000000001
 10
-0.0000000000000004
 20
-2.016
 42
0.9999999999999992
 10
0.0
 20
2.524
 42
1.000000000000001
 10
0.0
 20
-2.524
 42
0.999999999999999
 10
0.0000000000000002
 20
3.032
 42
1.000000000000001
 10
-0.0000000000000006
 20
-3.032
 42
0.9999999999999988
 10
0.0
 20
3.54
 42
1.000000000000001
 10
0.0
 20
-3.54
 42
0.9999999999999986
 10
0.0
 20
4.048
 42
1.000000000000002
 10
0.0
 20
-4.048
 42
0.9999999999999983
 10
0.0
 20
4.556
 42
1.000000000000002
 10
0.0
 20
-4.556
 42
0.9999999999999981
 10
0.0
 20
5.064000000000001
 42
1.000000000000002
 10
-0.0000000000000009
 20
-5.064
 42
0.9999999999999979
 10
0.0
 20
5.572
 42
1.000000000000002
 10
-0.000000000000001
 20
-5.572
 42
0.9999999999999977
 10
0.0000000000000011
 20
6.080000000000001
 42
1.000000000000002
 10
0.0
 20
-6.08
 42
0.9999999999999977
 10
0.0
 20
6.588
 42
1.000000000000002
 10
-0.0000000000000012
 20
-6.588
 42
0.9999999999999974
 10
0.0000000000000013
 20
7.096000000000001
 42
1.000000000000003
 10
0.0
 20
-7.096
 42
0.9999999999999974
 10
0.0
 20
7.604
 42
1.000000000000003
 10
-0.0000000000000014
 20
-7.604
 42
0.9999999999999972
 10
0.0
 20
8.112
 42
1.000000000000003
 10
-0.0000000000000015
 20
-8.112
 42
0.999999999999997
 10
0.0000000000000005
 20
8.620000000000001
 42
1.000000000000003
 10
-0.0000000000000016
 20
-8.620000000000001
 42
0.9999999999999968
 10
0.0
 20
9.128
 42
1.000000000000003
 10
-0.0000000000000017
 20
-9.128
 42
0.9999999999999966
 10
0.0000000000000018
 20
9.636
 42
1.000000000000004
 10
0.0
 20
-9.636
 42
0.9999999999999966
 10
0.0000000000000006
 20
10.144
 42
1.000000000000004
 10
0.0
 20
-10.144
  0
ARC
  5
12C
330
1F
100
AcDbEntity
  8
0
100
AcDbCircle
 10
-0.0068251435129043
 20
0.5
 30
0.0
 40
0.5000465804142368
100
AcDbArc
 50
270.7820552645942
 51
89.21794473540577
  0
CIRCLE
  5
18E
330
1F
100
AcDbEntity
  8
TOP_COPPER
100
AcDbCircle
 10
0.0
 20
0.0
 30
0.0
 40
0.25
  0
CIRCLE
  5
18F
330
1F
100
AcDbEntity
  8
DRILL
100
AcDbCircle
 10
0.0000000000000035
 20
0.0
 30
0.0
 40
0.25
  0
CIRCLE
  5
190
330
1F
100
AcDbEntity
  8
PTH
100
AcDbCircle
 10
0.0000000000000077
 20
0.0
 30
0.0
 40
0.25
  0
CIRCLE
  5
293
330
1F
100
AcDbEntity
  8
TOP_COPPER
100
AcDbCircle
 10
0.0
 20
0.0
 30
0.0
 40
0.25
  0
CIRCLE
  5
2AA
330
1F
100
AcDbEntity
  8
BOTTOM_COPPER
100
AcDbCircle
 10
-0.0000000000000001
 20
0.0
 30
0.0
 40
0.25
  0
CIRCLE
  5
2C0
330
1F
100
AcDbEntity
  8
TOP_COPPER
100
AcDbCircle
 10
11.0
 20
-32.5
 30
0.0
 40
0.25
  0
CIRCLE
  5
2C1
330
1F
100
AcDbEntity
  8
DRILL
100
AcDbCircle
 10
11.0
 20
-32.5
 30
0.0
 40
0.25
  0
CIRCLE
  5
2C2
330
1F
100
AcDbEntity
  8
PTH
100
AcDbCircle
 10
11.00000000000001
 20
-32.5
 30
0.0
 40
0.25
  0
LWPOLYLINE
  5
2C3
330
1F
100
AcDbEntity
  8
TOP_COPPER
100
AcDbPolyline
 90
       84
 70
     1
 43
0.0
 10
-27.59821785879901
 20
-30.127
 10
-1.674209501458905
 20
-30.127
 42
0.1989123673796578
 10
-0.1701933778751163
 20
-29.50401612358379
 10
3.91691137285434
 20
-25.41691137285434
 42
-0.1989123673796582
 10
11.0
 20
-22.483
 42
-0.9999999999999966
 10
11.0
 20
-42.009
 42
-1.000000000000004
 10
11.0
 20
-22.99099999999999
 42
-0.9999999999999966
 10
11.00000000000001
 20
-41.501
 42
-1.000000000000003
 10
11.0
 20
-23.49900000000001
 42
-0.9999999999999968
 10
11.00000000000001
 20
-40.99300000000001
 42
-1.000000000000003
 10
11.0
 20
-24.00699999999999
 42
-0.999999999999997
 10
11.0
 20
-40.485
 42
-1.000000000000003
 10
11.0
 20
-24.515
 42
-0.9999999999999972
 10
11.0
 20
-39.977
 42
-1.000000000000003
 10
11.0
 20
-25.02300000000001
 42
-0.9999999999999974
 10
11.0
 20
-39.46900000000001
 42
-1.000000000000003
 10
11.0
 20
-25.53099999999999
 42
-0.9999999999999974
 10
11.00000000000001
 20
-38.961
 42
-1.000000000000002
 10
11.0
 20
-26.039
 42
-0.9999999999999977
 10
11.00000000000001
 20
-38.453
 42
-1.000000000000002
 10
11.0
 20
-26.54699999999999
 42
-0.9999999999999977
 10
11.0
 20
-37.94500000000001
 42
-1.000000000000002
 10
11.0
 20
-27.05499999999999
 42
-0.9999999999999979
 10
11.0
 20
-37.437
 42
-1.000000000000002
 10
11.0
 20
-27.563
 42
-0.9999999999999981
 10
11.0
 20
-36.929
 42
-1.000000000000002
 10
11.0
 20
-28.07099999999999
 42
-0.9999999999999983
 10
11.0
 20
-36.42100000000001
 42
-1.000000000000002
 10
11.0
 20
-28.57899999999999
 42
-0.9999999999999986
 10
11.0
 20
-35.913
 42
-1.000000000000001
 10
11.0
 20
-29.087
 42
-0.9999999999999988
 10
11.0
 20
-35.405
 42
-1.000000000000001
 10
11.0
 20
-29.59499999999999
 42
-0.999999999999999
 10
11.0
 20
-34.89700000000001
 42
-1.000000000000001
 10
11.0
 20
-30.10299999999999
 42
-0.9999999999999992
 10
11.0
 20
-34.389
 42
-1.000000000000001
 10
11.0
 20
-30.611
 42
-0.9999999999999994
 10
11.0
 20
-33.881
 42
-1.0
 10
11.0
 20
-31.119
 42
-0.9999999999999997
 10
11.0
 20
-33.373
 42
-1.0
 10
11.0
 20
-31.627
 42
-0.515781949853124
 10
11.34330235719798
 20
-32.12874192947407
 42
6.772172184748946
 10
11.49139301647649
 20
-32.38074411231951
 42
0.617402932605319
 10
11.0
 20
-31.373
 42
1.0
 10
11.0
 20
-33.627
 42
0.9999999999999997
 10
11.0
 20
-30.86499999999999
 42
1.0
 10
11.0
 20
-34.13500000000001
 42
0.9999999999999994
 10
11.0
 20
-30.357
 42
1.000000000000001
 10
11.0
 20
-34.643
 42
0.9999999999999992
 10
11.0
 20
-29.849
 42
1.000000000000001
 10
11.0
 20
-35.151
 42
0.999999999999999
 10
11.0
 20
-29.34100000000001
 42
1.000000000000001
 10
11.0
 20
-35.65899999999999
 42
0.9999999999999988
 10
11.0
 20
-28.833
 42
1.000000000000001
 10
11.0
 20
-36.167
 42
0.9999999999999986
 10
11.0
 20
-28.325
 42
1.000000000000002
 10
11.0
 20
-36.675
 42
0.9999999999999983
 10
11.0
 20
-27.81700000000001
 42
1.000000000000002
 10
11.0
 20
-37.18299999999999
 42
0.9999999999999981
 10
11.0
 20
-27.309
 42
1.000000000000002
 10
10.99999999999999
 20
-37.691
 42
0.9999999999999979
 10
11.0
 20
-26.801
 42
1.000000000000002
 10
10.99999999999999
 20
-38.199
 42
0.9999999999999977
 10
11.0
 20
-26.29300000000001
 42
1.000000000000002
 10
10.99999999999999
 20
-38.70699999999999
 42
0.9999999999999977
 10
11.0
 20
-25.785
 42
1.000000000000002
 10
10.99999999999999
 20
-39.215
 42
0.9999999999999974
 10
11.0
 20
-25.277
 42
1.000000000000003
 10
11.0
 20
-39.723
 42
0.9999999999999974
 10
11.0
 20
-24.76900000000001
 42
1.000000000000003
 10
10.99999999999999
 20
-40.23099999999999
 42
0.9999999999999972
 10
11.0
 20
-24.261
 42
1.000000000000003
 10
10.99999999999999
 20
-40.739
 42
0.999999999999997
 10
11.00000000000001
 20
-23.753
 42
1.000000000000003
 10
11.0
 20
-41.247
 42
0.9999999999999968
 10
11.0
 20
-23.245
 42
1.000000000000003
 10
11.0
 20
-41.75500000000001
 42
0.9999999999999966
 10
11.0
 20
-22.73700000000001
 42
1.000000000000004
 10
11.0
 20
-42.26299999999999
 42
0.9999999999999966
 10
11.0
 20
-22.229
 42
0.1989123673796585
 10
3.737306250432946
 20
-25.23730625043296
 10
-0.3497985002964987
 20
-29.3244110011624
 42
-0.1989123673796578
 10
-1.674209501458903
 20
-29.873
 10
-27.59821785879918
 20
-29.873
 42
23.57963777157901
  0
CIRCLE
  5
2C4
330
1F
100
AcDbEntity
  8
TOP_COPPER
100
AcDbCircle
 10
11.0
 20
-32.5
 30
0.0
 40
0.25
  0
CIRCLE
  5
2C6
330
1F
100
AcDbEntity
  8
BOTTOM_COPPER
100
AcDbCircle
 10
11.0
 20
-32.5
 30
0.0
 40
0.25
  0
CIRCLE
  5
2C7
330
1F
100
AcDbEntity
  8
TOP_COPPER
100
AcDbCircle
 10
21.99999999999999
 20
0.0
 30
0.0
 40
0.25
  0
CIRCLE
  5
2C8
330
1F
100
AcDbEntity
  8
DRILL
100
AcDbCircle
 10
22.0
 20
0.0
 30
0.0
 40
0.25
  0
CIRCLE
  5
2C9
330
1F
100
AcDbEntity
  8
PTH
100
AcDbCircle
 10
22.0
 20
0.0
 30
0.0
 40
0.25
  0
CIRCLE
  5
2CB
330
1F
100
AcDbEntity
  8
TOP_COPPER
100
AcDbCircle
 10
21.99999999999999
 20
0.0
 30
0.0
 40
0.25
  0
CIRCLE
  5
2CD
330
1F
100
AcDbEntity
  8
BOTTOM_COPPER
100
AcDbCircle
 10
21.99999999999999
 20
0.0
 30
0.0
 40
0.25
  0
CIRCLE
  5
2CE
330
1F
100
AcDbEntity
  8
TOP_COPPER
100
AcDbCircle
 10
33.0
 20
-32.5
 30
0.0
 40
0.25
  0
CIRCLE
  5
2CF
330
1F
100
AcDbEntity
  8
DRILL
100
AcDbCircle
 10
33.0
 20
-32.5
 30
0.0
 40
0.25
  0
CIRCLE
  5
2D0
330
1F
100
AcDbEntity
  8
PTH
100
AcDbCircle
 10
33.00000000000001
 20
-32.5
 30
0.0
 40
0.25
  0
CIRCLE
  5
2D2
330
1F
100
AcDbEntity
  8
TOP_COPPER
100
AcDbCircle
 10
33.0
 20
-32.5
 30
0.0
 40
0.25
  0
CIRCLE
  5
2D4
330
1F
100
AcDbEntity
  8
BOTTOM_COPPER
100
AcDbCircle
 10
33.0
 20
-32.5
 30
0.0
 40
0.25
  0
CIRCLE
  5
2D5
330
1F
100
AcDbEntity
  8
TOP_COPPER
100
AcDbCircle
 10
43.99999999999999
 20
0.0
 30
0.0
 40
0.25
  0
CIRCLE
  5
2D6
330
1F
100
AcDbEntity
  8
DRILL
100
AcDbCircle
 10
43.99999999999999
 20
0.0
 30
0.0
 40
0.25
  0
CIRCLE
  5
2D7
330
1F
100
AcDbEntity
  8
PTH
100
AcDbCircle
 10
44.0
 20
0.0
 30
0.0
 40
0.25
  0
CIRCLE
  5
2D9
330
1F
100
AcDbEntity
  8
TOP_COPPER
100
AcDbCircle
 10
43.99999999999999
 20
0.0
 30
0.0
 40
0.25
  0
LWPOLYLINE
  5
2DA
330
1F
100
AcDbEntity
  8
BOTTOM_COPPER
100
AcDbPolyline
 90
       90
 70
     1
 43
0.0
 10
-22.59821785879902
 20
-12.373
 10
-13.50263662620509
 20
-12.373
 42
-0.1989123673796581
 10
-11.9986205026213
 20
-12.99598387641621
 10
-10.67019337787511
 20
-14.3244110011624
 42
0.1989123673796578
 10
-9.345782376712705
 20
-14.873
 10
52.14399999999999
 20
-14.873
 42
0.414213562373095
 10
54.01699999999999
 20
-13.0
 10
54.017
 20
-0.0000000000000004
 42
0.9999999999999966
 10
34.49099999999999
 20
0.0000000000000029
 42
1.000000000000004
 10
53.50899999999999
 20
0.0000000000000007
 42
0.9999999999999966
 10
34.999
 20
-0.0000000000000027
 42
1.000000000000003
 10
53.00099999999999
 20
-0.000000000000001
 42
0.9999999999999968
 10
35.50699999999999
 20
0.0000000000000015
 42
1.000000000000003
 10
52.49299999999999
 20
-0.0000000000000004
 42
0.999999999999997
 10
36.01499999999999
 20
-0.0000000000000024
 42
1.000000000000003
 10
51.98499999999999
 20
-0.0000000000000009
 42
0.9999999999999972
 10
36.523
 20
0.0000000000000009
 42
1.000000000000003
 10
51.47699999999999
 20
-0.0000000000000008
 42
0.9999999999999974
 10
37.03099999999999
 20
0.0000000000000021
 42
1.000000000000003
 10
50.96899999999999
 20
0.0000000000000005
 42
0.9999999999999974
 10
37.539
 20
-0.0000000000000019
 42
1.000000000000002
 10
50.461
 20
-0.0000000000000007
 42
0.9999999999999977
 10
38.04699999999998
 20
-0.0000000000000007
 42
1.000000000000002
 10
49.95299999999999
 20
0.0000000000000004
 42
0.9999999999999977
 10
38.55499999999999
 20
0.0000000000000006
 42
1.000000000000002
 10
49.44499999999999
 20
-0.0000000000000006
 42
0.9999999999999979
 10
39.063
 20
-0.0000000000000015
 42
1.000000000000002
 10
48.937
 20
-0.0000000000000005
 42
0.9999999999999981
 10
39.57099999999998
 20
0.0000000000000006
 42
1.000000000000002
 10
48.42899999999999
 20
-0.0000000000000005
 42
0.9999999999999983
 10
40.07899999999999
 20
-0.0000000000000011
 42
1.000000000000002
 10
47.92099999999999
 20
-0.0000000000000004
 42
0.9999999999999986
 10
40.58699999999999
 20
0.0000000000000004
 42
1.000000000000001
 10
47.413
 20
-0.0000000000000004
 42
0.9999999999999988
 10
41.09499999999998
 20
-0.0000000000000007
 42
1.000000000000001
 10
46.90499999999999
 20
-0.0000000000000001
 42
0.999999999999999
 10
41.60299999999999
 20
0.0000000000000003
 42
1.000000000000001
 10
46.39699999999999
 20
-0.0000000000000003
 42
0.9999999999999992
 10
42.11099999999999
 20
-0.0000000000000006
 42
1.000000000000001
 10
45.889
 20
-0.0000000000000002
 42
0.9999999999999994
 10
42.61899999999999
 20
0.0000000000000002
 42
1.0
 10
45.38099999999999
 20
-0.0000000000000001
 42
0.9999999999999997
 10
43.127
 20
0.0000000000000003
 42
1.0
 10
44.87299999999999
 20
-0.0000000000000003
 42
0.515781949853124
 10
44.37125807052592
 20
0.3433023571979777
 42
-6.772172184748946
 10
44.11925588768048
 20
0.4913930164764863
 42
-0.617402932605319
 10
45.127
 20
0.0000000000000009
 42
-1.0
 10
42.87299999999999
 20
0.0000000000000001
 42
-0.9999999999999997
 10
45.63499999999999
 20
0.0000000000000005
 42
-1.0
 10
42.36499999999999
 20
0.0000000000000002
 42
-0.9999999999999994
 10
46.14299999999999
 20
-0.0000000000000006
 42
-1.000000000000001
 10
41.85699999999999
 20
-0.0000000000000002
 42
-0.9999999999999992
 10
46.651
 20
0.0000000000000009
 42
-1.000000000000001
 10
41.34899999999999
 20
0.0000000000000003
 42
-0.999999999999999
 10
47.15899999999999
 20
-0.0000000000000008
 42
-1.000000000000001
 10
40.84099999999999
 20
-0.0000000000000002
 42
-0.9999999999999988
 10
47.667
 20
0.0000000000000012
 42
-1.000000000000001
 10
40.333
 20
0.0000000000000004
 42
-0.9999999999999986
 10
48.17499999999998
 20
-0.0000000000000004
 42
-1.000000000000002
 10
39.82499999999999
 20
0.0000000000000005
 42
-0.9999999999999983
 10
48.68299999999999
 20
0.0000000000000016
 42
-1.000000000000002
 10
39.31699999999999
 20
0.0000000000000005
 42
-0.9999999999999981
 10
49.191
 20
-0.0000000000000013
 42
-1.000000000000002
 10
38.809
 20
-0.0000000000000004
 42
-0.9999999999999979
 10
49.69899999999998
 20
0.0000000000000009
 42
-1.000000000000002
 10
38.30099999999999
 20
-0.0000000000000004
 42
-0.9999999999999977
 10
50.20699999999999
 20
-0.0000000000000005
 42
-1.000000000000002
 10
37.79299999999999
 20
0.0000000000000007
 42
-0.9999999999999977
 10
50.71499999999999
 20
-0.0000000000000017
 42
-1.000000000000002
 10
37.285
 20
-0.0000000000000005
 42
-0.9999999999999974
 10
51.22299999999998
 20
0.0000000000000024
 42
-1.000000000000003
 10
36.77699999999999
 20
0.0000000000000008
 42
-0.9999999999999974
 10
51.73099999999999
 20
0.0000000000000012
 42
-1.000000000000003
 10
36.26899999999999
 20
-0.0000000000000006
 42
-0.9999999999999972
 10
52.23899999999999
 20
-0.0000000000000021
 42
-1.000000000000003
 10
35.761
 20
-0.0000000000000006
 42
-0.999999999999997
 10
52.74699999999999
 20
0.0000000000000014
 42
-1.000000000000003
 10
35.25299999999999
 20
-0.0000000000000007
 42
-0.9999999999999968
 10
53.255
 20
-0.0000000000000024
 42
-1.000000000000003
 10
34.74499999999999
 20
-0.0000000000000007
 42
-0.9999999999999966
 10
53.76299999999999
 20
0.0000000000000033
 42
-1.000000000000004
 10
34.23699999999999
 20
0.000000000000001
 42
-0.9999999999999966
 10
54.27099999999999
 20
-0.0000000000000026
 10
54.27099999999999
 20
-13.0
 42
-0.414213562373095
 10
52.14399999999999
 20
-15.127
 10
-9.345782376712705
 20
-15.127
 42
-0.1989123673796578
 10
-10.84979850029649
 20
-14.50401612358379
 10
-12.17822562504269
 20
-13.1755889988376
 42
0.1989123673796581
 10
-13.50263662620509
 20
-12.627
 10
-22.59821785879902
 20
-12.627
 42
-23.57963777157851
  0
CIRCLE
  5
2DB
330
1F
100
AcDbEntity
  8
BOTTOM_COPPER
100
AcDbCircle
 10
43.99999999999999
 20
0.0
 30
0.0
 40
0.25
  0
CIRCLE
  5
2DC
330
1F
100
AcDbEntity
  8
TOP_COPPER
100
AcDbCircle
 10
55.0
 20
-32.5
 30
0.0
 40
0.25
  0
CIRCLE
  5
2DD
330
1F
100
AcDbEntity
  8
DRILL
100
AcDbCircle
 10
55.0
 20
-32.5
 30
0.0
 40
0.25
  0
CIRCLE
  5
2DE
330
1F
100
AcDbEntity
  8
PTH
100
AcDbCircle
 10
55.00000000000001
 20
-32.5
 30
0.0
 40
0.25
  0
CIRCLE
  5
2E0
330
1F
100
AcDbEntity
  8
TOP_COPPER
100
AcDbCircle
 10
55.0
 20
-32.5
 30
0.0
 40
0.25
  0
CIRCLE
  5
2E2
330
1F
100
AcDbEntity
  8
BOTTOM_COPPER
100
AcDbCircle
 10
55.0
 20
-32.5
 30
0.0
 40
0.25
  0
CIRCLE
  5
2F7
330
1F
100
AcDbEntity
  8
BOTTOM_COPPER
100
AcDbCircle
 10
-24.09283185578954
 20
-2.5
 30
0.0
 40
0.5
  0
CIRCLE
  5
2F9
330
1F
100
AcDbEntity
  8
BOTTOM_COPPER
100
AcDbCircle
 10
-24.09283185578954
 20
-7.5
 30
0.0
 40
0.5
  0
CIRCLE
  5
2FB
330
1F
100
AcDbEntity
  8
BOTTOM_COPPER
100
AcDbCircle
 10
-24.09283185578954
 20
-12.5
 30
0.0
 40
0.5
  0
CIRCLE
  5
2FD
330
1F
100
AcDbEntity
  8
BOTTOM_COPPER
100
AcDbCircle
 10
-24.09283185578954
 20
-17.5
 30
0.0
 40
0.5
  0
CIRCLE
  5
2FF
330
1F
100
AcDbEntity
  8
BOTTOM_COPPER
100
AcDbCircle
 10
-24.09283185578954
 20
-22.5
 30
0.0
 40
0.5
  0
CIRCLE
  5
301
330
1F
100
AcDbEntity
  8
BOTTOM_COPPER
100
AcDbCircle
 10
-24.09283185578954
 20
-27.5
 30
0.0
 40
0.5
  0
CIRCLE
  5
303
330
1F
100
AcDbEntity
  8
TOP_COPPER
100
AcDbCircle
 10
-29.09283185578954
 20
-5.0
 30
0.0
 40
0.5
  0
CIRCLE
  5
305
330
1F
100
AcDbEntity
  8
TOP_COPPER
100
AcDbCircle
 10
-29.09283185578954
 20
-10.0
 30
0.0
 40
0.5
  0
CIRCLE
  5
307
330
1F
100
AcDbEntity
  8
TOP_COPPER
100
AcDbCircle
 10
-29.09283185578954
 20
-15.0
 30
0.0
 40
0.5
  0
CIRCLE
  5
309
330
1F
100
AcDbEntity
  8
TOP_COPPER
100
AcDbCircle
 10
-29.09283185578954
 20
-20.0
 30
0.0
 40
0.5
  0
CIRCLE
  5
30B
330
1F
100
AcDbEntity
  8
TOP_COPPER
100
AcDbCircle
 10
-29.09283185578954
 20
-25.0
 30
0.0
 40
0.5
  0
CIRCLE
  5
30D
330
1F
100
AcDbEntity
  8
TOP_COPPER
100
AcDbCircle
 10
-29.09283185578954
 20
-30.0
 30
0.0
 40
0.5
  0
LWPOLYLINE
  5
321
330
1F
100
AcDbEntity
  8
BOTTOM_COPPER
100
AcDbPolyline
 90
       84
 70
     1
 43
0.0
 10
-22.598217858799
 20
-27.627
 10
-0.1440000000000341
 20
-27.627
 42
-0.414213562373095
 10
0.7289999999999661
 20
-28.5
 10
0.729000000000001
 20
-32.5
 42
1.000000000000004
 10
21.271
 20
-32.5
 42
0.9999999999999966
 10
1.237
 20
-32.5
 42
1.000000000000004
 10
20.763
 20
-32.5
 42
0.9999999999999966
 10
1.744999999999999
 20
-32.5
 42
1.000000000000003
 10
20.255
 20
-32.5
 42
0.9999999999999968
 10
2.252999999999998
 20
-32.5
 42
1.000000000000003
 10
19.747
 20
-32.5
 42
0.999999999999997
 10
2.760999999999999
 20
-32.5
 42
1.000000000000003
 10
19.239
 20
-32.5
 42
0.9999999999999972
 10
3.269
 20
-32.5
 42
1.000000000000003
 10
18.731
 20
-32.5
 42
0.9999999999999974
 10
3.777
 20
-32.5
 42
1.000000000000003
 10
18.223
 20
-32.5
 42
0.9999999999999974
 10
4.285
 20
-32.5
 42
1.000000000000002
 10
17.715
 20
-32.5
 42
0.9999999999999977
 10
4.793
 20
-32.5
 42
1.000000000000002
 10
17.207
 20
-32.5
 42
0.9999999999999977
 10
5.301
 20
-32.5
 42
1.000000000000002
 10
16.699
 20
-32.5
 42
0.9999999999999979
 10
5.809
 20
-32.5
 42
1.000000000000002
 10
16.191
 20
-32.5
 42
0.9999999999999981
 10
6.317
 20
-32.5
 42
1.000000000000002
 10
15.683
 20
-32.5
 42
0.9999999999999983
 10
6.825
 20
-32.5
 42
1.000000000000002
 10
15.175
 20
-32.5
 42
0.9999999999999986
 10
7.333
 20
-32.5
 42
1.000000000000001
 10
14.667
 20
-32.5
 42
0.9999999999999988
 10
7.841
 20
-32.5
 42
1.000000000000001
 10
14.159
 20
-32.5
 42
0.999999999999999
 10
8.349
 20
-32.5
 42
1.000000000000001
 10
13.651
 20
-32.5
 42
0.9999999999999992
 10
8.857
 20
-32.5
 42
1.000000000000001
 10
13.143
 20
-32.5
 42
0.9999999999999994
 10
9.365
 20
-32.5
 42
1.0
 10
12.635
 20
-32.5
 42
0.9999999999999997
 10
9.873
 20
-32.5
 42
1.0
 10
12.127
 20
-32.5
 42
0.617402932605319
 10
11.11925588768049
 20
-32.00860698352351
 42
6.772172184748946
 10
11.37125807052593
 20
-32.15669764280202
 42
-0.515781949853124
 10
11.873
 20
-32.5
 42
-1.0
 10
10.127
 20
-32.5
 42
-0.9999999999999997
 10
12.381
 20
-32.5
 42
-1.0
 10
9.619
 20
-32.5
 42
-0.9999999999999994
 10
12.889
 20
-32.5
 42
-1.000000000000001
 10
9.111
 20
-32.5
 42
-0.9999999999999992
 10
13.397
 20
-32.5
 42
-1.000000000000001
 10
8.603
 20
-32.5
 42
-0.999999999999999
 10
13.905
 20
-32.5
 42
-1.000000000000001
 10
8.094999999999999
 20
-32.5
 42
-0.9999999999999988
 10
14.413
 20
-32.5
 42
-1.000000000000001
 10
7.587
 20
-32.5
 42
-0.9999999999999986
 10
14.921
 20
-32.5
 42
-1.000000000000002
 10
7.079
 20
-32.5
 42
-0.9999999999999983
 10
15.429
 20
-32.5
 42
-1.000000000000002
 10
6.571
 20
-32.5
 42
-0.9999999999999981
 10
15.937
 20
-32.5
 42
-1.000000000000002
 10
6.063
 20
-32.5
 42
-0.9999999999999979
 10
16.445
 20
-32.5
 42
-1.000000000000002
 10
5.555
 20
-32.5
 42
-0.9999999999999977
 10
16.953
 20
-32.5
 42
-1.000000000000002
 10
5.047
 20
-32.5
 42
-0.9999999999999977
 10
17.461
 20
-32.5
 42
-1.000000000000002
 10
4.539
 20
-32.5
 42
-0.9999999999999974
 10
17.969
 20
-32.5
 42
-1.000000000000003
 10
4.031
 20
-32.5
 42
-0.9999999999999974
 10
18.477
 20
-32.5
 42
-1.000000000000003
 10
3.523
 20
-32.5
 42
-0.9999999999999972
 10
18.985
 20
-32.5
 42
-1.000000000000003
 10
3.015
 20
-32.5
 42
-0.999999999999997
 10
19.493
 20
-32.5
 42
-1.000000000000003
 10
2.507
 20
-32.5
 42
-0.9999999999999968
 10
20.001
 20
-32.5
 42
-1.000000000000003
 10
1.999000000000001
 20
-32.5
 42
-0.9999999999999966
 10
20.509
 20
-32.5
 42
-1.000000000000004
 10
1.491000000000001
 20
-32.5
 42
-0.9999999999999966
 10
21.017
 20
-32.5
 42
-1.000000000000004
 10
0.9829999999999661
 20
-32.5
 10
0.9829999999999661
 20
-28.5
 42
0.414213562373095
 10
-0.1440000000000341
 20
-27.373
 10
-22.598217858799
 20
-27.373
 42
23.57963777157901
  0
LWPOLYLINE
  5
3DB
330
1F
100
AcDbEntity
  8
BOTTOM_COPPER
100
AcDbPolyline
 90
       98
 70
     1
 43
0.0
 10
-22.59821785879901
 20
-22.62699999999997
 10
-22.59283185578954
 20
-22.62699999999997
 10
2.118822434550299
 20
-22.62699999999997
 42
0.198912367379658
 10
3.622838558134063
 20
-22.00401612358376
 10
4.951265682880252
 20
-20.67558899883757
 42
-0.1989123673796578
 10
6.275676684042679
 20
-20.12699999999997
 10
15.72432331595732
 20
-20.12699999999997
 42
-0.1989123673796579
 10
17.04873431711975
 20
-20.67558899883757
 10
22.18041100116239
 20
-25.80726568288022
 42
-0.1989123673796578
 10
22.729
 20
-27.13167668404265
 10
22.729
 20
-32.5
 42
1.000000000000004
 10
43.271
 20
-32.5
 42
0.9999999999999966
 10
23.237
 20
-32.5
 42
1.000000000000004
 10
42.763
 20
-32.5
 42
0.9999999999999966
 10
23.745
 20
-32.5
 42
1.000000000000003
 10
42.255
 20
-32.5
 42
0.9999999999999968
 10
24.253
 20
-32.5
 42
1.000000000000003
 10
41.747
 20
-32.5
 42
0.999999999999997
 10
24.761
 20
-32.5
 42
1.000000000000003
 10
41.239
 20
-32.5
 42
0.9999999999999972
 10
25.269
 20
-32.5
 42
1.000000000000003
 10
40.731
 20
-32.5
 42
0.9999999999999974
 10
25.777
 20
-32.5
 42
1.000000000000003
 10
40.223
 20
-32.5
 42
0.9999999999999974
 10
26.285
 20
-32.5
 42
1.000000000000002
 10
39.715
 20
-32.5
 42
0.9999999999999977
 10
26.793
 20
-32.5
 42
1.000000000000002
 10
39.207
 20
-32.5
 42
0.9999999999999977
 10
27.301
 20
-32.5
 42
1.000000000000002
 10
38.699
 20
-32.5
 42
0.9999999999999979
 10
27.809
 20
-32.5
 42
1.000000000000002
 10
38.191
 20
-32.5
 42
0.9999999999999981
 10
28.317
 20
-32.5
 42
1.000000000000002
 10
37.683
 20
-32.5
 42
0.9999999999999983
 10
28.825
 20
-32.5
 42
1.000000000000002
 10
37.175
 20
-32.5
 42
0.9999999999999986
 10
29.333
 20
-32.5
 42
1.000000000000001
 10
36.667
 20
-32.5
 42
0.9999999999999988
 10
29.841
 20
-32.5
 42
1.000000000000001
 10
36.159
 20
-32.5
 42
0.999999999999999
 10
30.349
 20
-32.5
 42
1.000000000000001
 10
35.651
 20
-32.5
 42
0.9999999999999992
 10
30.857
 20
-32.5
 42
1.000000000000001
 10
35.143
 20
-32.5
 42
0.9999999999999994
 10
31.365
 20
-32.5
 42
1.0
 10
34.635
 20
-32.5
 42
0.9999999999999997
 10
31.873
 20
-32.5
 42
1.0
 10
34.127
 20
-32.5
 42
0.617402932605319
 10
33.11925588768049
 20
-32.00860698352351
 42
6.772172184748946
 10
33.37125807052593
 20
-32.15669764280202
 42
-0.515781949853124
 10
33.873
 20
-32.5
 42
-1.0
 10
32.127
 20
-32.5
 42
-0.9999999999999997
 10
34.381
 20
-32.5
 42
-1.0
 10
31.619
 20
-32.5
 42
-0.9999999999999994
 10
34.889
 20
-32.5
 42
-1.000000000000001
 10
31.111
 20
-32.5
 42
-0.9999999999999992
 10
35.397
 20
-32.5
 42
-1.000000000000001
 10
30.603
 20
-32.5
 42
-0.999999999999999
 10
35.905
 20
-32.5
 42
-1.000000000000001
 10
30.095
 20
-32.5
 42
-0.9999999999999988
 10
36.413
 20
-32.5
 42
-1.000000000000001
 10
29.587
 20
-32.5
 42
-0.9999999999999986
 10
36.921
 20
-32.5
 42
-1.000000000000002
 10
29.079
 20
-32.5
 42
-0.9999999999999983
 10
37.429
 20
-32.5
 42
-1.000000000000002
 10
28.571
 20
-32.5
 42
-0.9999999999999981
 10
37.937
 20
-32.5
 42
-1.000000000000002
 10
28.063
 20
-32.5
 42
-0.9999999999999979
 10
38.445
 20
-32.5
 42
-1.000000000000002
 10
27.555
 20
-32.5
 42
-0.9999999999999977
 10
38.953
 20
-32.5
 42
-1.000000000000002
 10
27.047
 20
-32.5
 42
-0.9999999999999977
 10
39.461
 20
-32.5
 42
-1.000000000000002
 10
26.539
 20
-32.5
 42
-0.9999999999999974
 10
39.969
 20
-32.5
 42
-1.000000000000003
 10
26.031
 20
-32.5
 42
-0.9999999999999974
 10
40.477
 20
-32.5
 42
-1.000000000000003
 10
25.523
 20
-32.5
 42
-0.9999999999999972
 10
40.985
 20
-32.5
 42
-1.000000000000003
 10
25.015
 20
-32.5
 42
-0.999999999999997
 10
41.493
 20
-32.5
 42
-1.000000000000003
 10
24.507
 20
-32.5
 42
-0.9999999999999968
 10
42.001
 20
-32.5
 42
-1.000000000000003
 10
23.999
 20
-32.5
 42
-0.9999999999999966
 10
42.509
 20
-32.5
 42
-1.000000000000004
 10
23.491
 20
-32.5
 42
-0.9999999999999966
 10
43.017
 20
-32.5
 42
-1.000000000000004
 10
22.98299999999993
 20
-32.5
 10
22.98299999999993
 20
-27.13167668404265
 42
0.1989123673796578
 10
22.36001612358373
 20
-25.62766056045888
 10
17.22833943954108
 20
-20.49598387641624
 42
0.1989123673796579
 10
15.72432331595732
 20
-19.87300000000003
 10
6.275676684042679
 20
-19.87300000000003
 42
0.1989123673796578
 10
4.771660560458916
 20
-20.49598387641624
 10
3.443233435712727
 20
-21.82441100116243
 42
-0.198912367379658
 10
2.118822434550299
 20
-22.37300000000003
 10
-22.59283185578954
 20
-22.37300000000003
 10
-22.59821785879901
 20
-22.37300000000003
 42
23.57963777158519
  0
LWPOLYLINE
  5
4A1
330
1F
100
AcDbEntity
  8
BOTTOM_COPPER
100
AcDbPolyline
 90
       84
 70
     1
 43
0.0
 10
-22.598217858799
 20
-17.62699999999997
 10
42.856
 20
-17.62699999999997
 42
-0.414213562373095
 10
44.72900000000003
 20
-19.5
 10
44.729
 20
-32.5
 42
1.000000000000004
 10
65.27099999999999
 20
-32.5
 42
0.9999999999999966
 10
45.237
 20
-32.5
 42
1.000000000000004
 10
64.763
 20
-32.5
 42
0.9999999999999966
 10
45.745
 20
-32.5
 42
1.000000000000003
 10
64.255
 20
-32.5
 42
0.9999999999999968
 10
46.253
 20
-32.5
 42
1.000000000000003
 10
63.747
 20
-32.5
 42
0.999999999999997
 10
46.761
 20
-32.5
 42
1.000000000000003
 10
63.239
 20
-32.5
 42
0.9999999999999972
 10
47.269
 20
-32.5
 42
1.000000000000003
 10
62.731
 20
-32.5
 42
0.9999999999999974
 10
47.777
 20
-32.5
 42
1.000000000000003
 10
62.223
 20
-32.5
 42
0.9999999999999974
 10
48.285
 20
-32.5
 42
1.000000000000002
 10
61.715
 20
-32.5
 42
0.9999999999999977
 10
48.793
 20
-32.5
 42
1.000000000000002
 10
61.207
 20
-32.5
 42
0.9999999999999977
 10
49.301
 20
-32.5
 42
1.000000000000002
 10
60.699
 20
-32.5
 42
0.9999999999999979
 10
49.809
 20
-32.5
 42
1.000000000000002
 10
60.191
 20
-32.5
 42
0.9999999999999981
 10
50.317
 20
-32.5
 42
1.000000000000002
 10
59.683
 20
-32.5
 42
0.9999999999999983
 10
50.825
 20
-32.5
 42
1.000000000000002
 10
59.175
 20
-32.5
 42
0.9999999999999986
 10
51.333
 20
-32.5
 42
1.000000000000001
 10
58.667
 20
-32.5
 42
0.9999999999999988
 10
51.841
 20
-32.5
 42
1.000000000000001
 10
58.159
 20
-32.5
 42
0.999999999999999
 10
52.349
 20
-32.5
 42
1.000000000000001
 10
57.651
 20
-32.5
 42
0.9999999999999992
 10
52.857
 20
-32.5
 42
1.000000000000001
 10
57.143
 20
-32.5
 42
0.9999999999999994
 10
53.365
 20
-32.5
 42
1.0
 10
56.635
 20
-32.5
 42
0.9999999999999997
 10
53.873
 20
-32.5
 42
1.0
 10
56.127
 20
-32.5
 42
0.617402932605319
 10
55.11925588768049
 20
-32.00860698352351
 42
6.772172184748946
 10
55.37125807052593
 20
-32.15669764280202
 42
-0.515781949853124
 10
55.873
 20
-32.5
 42
-1.0
 10
54.127
 20
-32.5
 42
-0.9999999999999997
 10
56.381
 20
-32.5
 42
-1.0
 10
53.619
 20
-32.5
 42
-0.9999999999999994
 10
56.889
 20
-32.5
 42
-1.000000000000001
 10
53.111
 20
-32.5
 42
-0.9999999999999992
 10
57.397
 20
-32.5
 42
-1.000000000000001
 10
52.603
 20
-32.5
 42
-0.999999999999999
 10
57.905
 20
-32.5
 42
-1.000000000000001
 10
52.095
 20
-32.5
 42
-0.9999999999999988
 10
58.413
 20
-32.5
 42
-1.000000000000001
 10
51.587
 20
-32.5
 42
-0.9999999999999986
 10
58.921
 20
-32.5
 42
-1.000000000000002
 10
51.079
 20
-32.5
 42
-0.9999999999999983
 10
59.429
 20
-32.5
 42
-1.000000000000002
 10
50.571
 20
-32.5
 42
-0.9999999999999981
 10
59.937
 20
-32.5
 42
-1.000000000000002
 10
50.063
 20
-32.5
 42
-0.9999999999999979
 10
60.445
 20
-32.5
 42
-1.000000000000002
 10
49.555
 20
-32.5
 42
-0.9999999999999977
 10
60.953
 20
-32.5
 42
-1.000000000000002
 10
49.047
 20
-32.5
 42
-0.9999999999999977
 10
61.461
 20
-32.5
 42
-1.000000000000002
 10
48.539
 20
-32.5
 42
-0.9999999999999974
 10
61.969
 20
-32.5
 42
-1.000000000000003
 10
48.031
 20
-32.5
 42
-0.9999999999999974
 10
62.477
 20
-32.5
 42
-1.000000000000003
 10
47.523
 20
-32.5
 42
-0.9999999999999972
 10
62.985
 20
-32.5
 42
-1.000000000000003
 10
47.015
 20
-32.5
 42
-0.999999999999997
 10
63.493
 20
-32.5
 42
-1.000000000000003
 10
46.507
 20
-32.5
 42
-0.9999999999999968
 10
64.001
 20
-32.5
 42
-1.000000000000003
 10
45.999
 20
-32.5
 42
-0.9999999999999966
 10
64.50899999999999
 20
-32.5
 42
-1.000000000000004
 10
45.491
 20
-32.5
 42
-0.9999999999999966
 10
65.017
 20
-32.5
 42
-1.000000000000004
 10
44.98299999999997
 20
-32.50000000000004
 10
44.98299999999997
 20
-19.5
 42
0.414213562373095
 10
42.856
 20
-17.37300000000003
 10
-22.598217858799
 20
-17.37300000000003
 42
23.57963777158519
  0
LWPOLYLINE
  5
55C
330
1F
100
AcDbEntity
  8
BOTTOM_COPPER
100
AcDbPolyline
 90
       84
 70
     1
 43
0.0
 10
-22.59821785879902
 20
-2.627000000000001
 10
-12.6742095014589
 20
-2.627
 42
-0.198912367379658
 10
-11.3497985002965
 20
-3.175588998837596
 10
-7.26269374956704
 20
-7.262693749567053
 42
0.6681786379193008
 10
10.271
 20
0.0000000000000026
 42
0.9999999999999966
 10
-9.763
 20
0.000000000000001
 42
1.000000000000004
 10
9.763
 20
0.000000000000003
 42
0.9999999999999966
 10
-9.255
 20
-0.0000000000000007
 42
1.000000000000003
 10
9.255
 20
-0.0000000000000019
 42
0.9999999999999968
 10
-8.747000000000002
 20
-0.0000000000000007
 42
1.000000000000003
 10
8.747000000000002
 20
0.0000000000000012
 42
0.999999999999997
 10
-8.239
 20
-0.0000000000000006
 42
1.000000000000003
 10
8.239
 20
-0.0000000000000017
 42
0.9999999999999972
 10
-7.731
 20
-0.0000000000000006
 42
1.000000000000003
 10
7.731
 20
0.0000000000000009
 42
0.9999999999999974
 10
-7.223
 20
0.0000000000000008
 42
1.000000000000003
 10
7.223000000000001
 20
0.0000000000000022
 42
0.9999999999999974
 10
-6.715
 20
-0.0000000000000005
 42
1.000000000000002
 10
6.715
 20
-0.0000000000000014
 42
0.9999999999999977
 10
-6.207
 20
0.0000000000000007
 42
1.000000000000002
 10
6.207000000000001
 20
-0.0000000000000002
 42
0.9999999999999977
 10
-5.699
 20
-0.0000000000000004
 42
1.000000000000002
 10
5.699
 20
0.0000000000000007
 42
0.9999999999999979
 10
-5.191
 20
-0.0000000000000004
 42
1.000000000000002
 10
5.191000000000001
 20
-0.0000000000000011
 42
0.9999999999999981
 10
-4.683
 20
0.0000000000000005
 42
1.000000000000002
 10
4.683
 20
0.0000000000000012
 42
0.9999999999999983
 10
-4.175
 20
0.0000000000000005
 42
1.000000000000002
 10
4.175
 20
-0.0000000000000003
 42
0.9999999999999986
 10
-3.667
 20
0.0000000000000004
 42
1.000000000000001
 10
3.667
 20
0.000000000000001
 42
0.9999999999999988
 10
-3.159
 20
-0.0000000000000002
 42
1.000000000000001
 10
3.159
 20
-0.0000000000000006
 42
0.999999999999999
 10
-2.651
 20
0.0000000000000003
 42
1.000000000000001
 10
2.651
 20
0.0000000000000007
 42
0.9999999999999992
 10
-2.143
 20
-0.0000000000000002
 42
1.000000000000001
 10
2.143
 20
-0.0000000000000005
 42
0.9999999999999994
 10
-1.635
 20
0.0000000000000002
 42
1.0
 10
1.635
 20
0.0000000000000004
 42
0.9999999999999997
 10
-1.127
 20
0.0000000000000001
 42
1.0
 10
1.127
 20
0.0000000000000008
 42
0.617402932605319
 10
0.1192558876804871
 20
0.4913930164764864
 42
6.772172184748946
 10
0.3712580705259276
 20
0.3433023571979775
 42
-0.515781949853124
 10
0.8730000000000001
 20
-0.0000000000000003
 42
-1.0
 10
-0.873
 20
0.0000000000000003
 42
-0.9999999999999997
 10
1.381
 20
-0.0000000000000001
 42
-1.0
 10
-1.381
 20
0.0000000000000002
 42
-0.9999999999999994
 10
1.889
 20
-0.0000000000000002
 42
-1.000000000000001
 10
-1.889
 20
-0.0000000000000005
 42
-0.9999999999999992
 10
2.397
 20
-0.0000000000000003
 42
-1.000000000000001
 10
-2.397
 20
0.0000000000000003
 42
-0.999999999999999
 10
2.905
 20
-0.0000000000000001
 42
-1.000000000000001
 10
-2.905
 20
-0.0000000000000007
 42
-0.9999999999999988
 10
3.413
 20
-0.0000000000000004
 42
-1.000000000000001
 10
-3.413
 20
0.0000000000000004
 42
-0.9999999999999986
 10
3.921
 20
-0.0000000000000004
 42
-1.000000000000002
 10
-3.921
 20
-0.0000000000000009
 42
-0.9999999999999983
 10
4.429
 20
-0.0000000000000005
 42
-1.000000000000002
 10
-4.429
 20
0.0000000000000005
 42
-0.9999999999999981
 10
4.937000000000001
 20
-0.0000000000000005
 42
-1.000000000000002
 10
-4.937
 20
-0.0000000000000014
 42
-0.9999999999999979
 10
5.445
 20
-0.0000000000000006
 42
-1.000000000000002
 10
-5.445
 20
0.0000000000000003
 42
-0.9999999999999977
 10
5.953000000000001
 20
0.0000000000000004
 42
-1.000000000000002
 10
-5.953
 20
-0.0000000000000005
 42
-0.9999999999999977
 10
6.461
 20
-0.0000000000000007
 42
-1.000000000000002
 10
-6.461
 20
-0.0000000000000018
 42
-0.9999999999999974
 10
6.969000000000001
 20
0.0000000000000005
 42
-1.000000000000003
 10
-6.969
 20
0.0000000000000017
 42
-0.9999999999999974
 10
7.477
 20
-0.0000000000000008
 42
-1.000000000000003
 10
-7.477
 20
0.0000000000000005
 42
-0.9999999999999972
 10
7.985
 20
-0.0000000000000009
 42
-1.000000000000003
 10
-7.985
 20
-0.0000000000000022
 42
-0.999999999999997
 10
8.493
 20
-0.0000000000000004
 42
-1.000000000000003
 10
-8.493
 20
0.0000000000000009
 42
-0.9999999999999968
 10
9.001
 20
-0.000000000000001
 42
-1.000000000000003
 10
-9.001
 20
-0.0000000000000025
 42
-0.9999999999999966
 10
9.508999999999999
 20
0.0000000000000007
 42
-1.000000000000004
 10
-9.508999999999999
 20
0.0000000000000023
 42
-0.9999999999999966
 10
10.017
 20
-0.0000000000000004
 42
-0.6681786379193008
 10
-7.083088627145664
 20
-7.083088627145661
 10
-11.17019337787511
 20
-2.995983876416212
 42
0.198912367379658
 10
-12.6742095014589
 20
-2.372999999999998
 10
-22.59821785879902
 20
-2.372999999999999
 42
23.57963777157876
  0
LWPOLYLINE
  5
619
330
1F
100
AcDbEntity
  8
BOTTOM_COPPER
100
AcDbPolyline
 90
       90
 70
     1
 43
0.0
 10
32.01699999999999
 20
-0.0000000000000004
 42
0.9999999999999966
 10
12.49099999999999
 20
0.0000000000000029
 42
1.000000000000004
 10
31.50899999999999
 20
0.0000000000000007
 42
0.9999999999999966
 10
12.999
 20
-0.0000000000000027
 42
1.000000000000003
 10
31.00099999999999
 20
-0.000000000000001
 42
0.9999999999999968
 10
13.50699999999999
 20
0.0000000000000015
 42
1.000000000000003
 10
30.49299999999999
 20
-0.0000000000000004
 42
0.999999999999997
 10
14.01499999999999
 20
-0.0000000000000024
 42
1.000000000000003
 10
29.98499999999999
 20
-0.0000000000000009
 42
0.9999999999999972
 10
14.523
 20
0.0000000000000009
 42
1.000000000000003
 10
29.47699999999999
 20
-0.0000000000000008
 42
0.9999999999999974
 10
15.03099999999999
 20
0.0000000000000021
 42
1.000000000000003
 10
28.96899999999999
 20
0.0000000000000005
 42
0.9999999999999974
 10
15.53899999999999
 20
-0.0000000000000019
 42
1.000000000000002
 10
28.46099999999999
 20
-0.0000000000000007
 42
0.9999999999999977
 10
16.04699999999999
 20
-0.0000000000000007
 42
1.000000000000002
 10
27.953
 20
0.0000000000000004
 42
0.9999999999999977
 10
16.55499999999999
 20
0.0000000000000006
 42
1.000000000000002
 10
27.44499999999999
 20
-0.0000000000000006
 42
0.9999999999999979
 10
17.063
 20
-0.0000000000000015
 42
1.000000000000002
 10
26.93699999999999
 20
-0.0000000000000005
 42
0.9999999999999981
 10
17.57099999999999
 20
0.0000000000000006
 42
1.000000000000002
 10
26.42899999999999
 20
-0.0000000000000005
 42
0.9999999999999983
 10
18.07899999999999
 20
-0.0000000000000011
 42
1.000000000000002
 10
25.92099999999999
 20
-0.0000000000000004
 42
0.9999999999999986
 10
18.587
 20
0.0000000000000004
 42
1.000000000000001
 10
25.41299999999999
 20
-0.0000000000000004
 42
0.9999999999999988
 10
19.09499999999999
 20
-0.0000000000000007
 42
1.000000000000001
 10
24.90499999999999
 20
-0.0000000000000001
 42
0.999999999999999
 10
19.60299999999999
 20
0.0000000000000003
 42
1.000000000000001
 10
24.39699999999999
 20
-0.0000000000000003
 42
0.9999999999999992
 10
20.111
 20
-0.0000000000000006
 42
1.000000000000001
 10
23.88899999999999
 20
-0.0000000000000002
 42
0.9999999999999994
 10
20.61899999999999
 20
0.0000000000000002
 42
1.0
 10
23.38099999999999
 20
-0.0000000000000001
 42
0.9999999999999997
 10
21.12699999999999
 20
0.0000000000000003
 42
1.0
 10
22.87299999999999
 20
-0.0000000000000003
 42
0.515781949853124
 10
22.37125807052592
 20
0.3433023571979775
 42
-6.772172184748946
 10
22.11925588768048
 20
0.4913930164764865
 42
-0.617402932605319
 10
23.12699999999999
 20
0.0000000000000009
 42
-1.0
 10
20.873
 20
0.0000000000000001
 42
-0.9999999999999997
 10
23.635
 20
0.0000000000000005
 42
-1.0
 10
20.36499999999999
 20
0.0000000000000002
 42
-0.9999999999999994
 10
24.14299999999999
 20
-0.0000000000000006
 42
-1.000000000000001
 10
19.85699999999999
 20
-0.0000000000000002
 42
-0.9999999999999992
 10
24.651
 20
0.0000000000000009
 42
-1.000000000000001
 10
19.34899999999999
 20
0.0000000000000003
 42
-0.999999999999999
 10
25.15899999999999
 20
-0.0000000000000008
 42
-1.000000000000001
 10
18.84099999999999
 20
-0.0000000000000002
 42
-0.9999999999999988
 10
25.66699999999999
 20
0.0000000000000012
 42
-1.000000000000001
 10
18.33299999999999
 20
0.0000000000000004
 42
-0.9999999999999986
 10
26.175
 20
-0.0000000000000004
 42
-1.000000000000002
 10
17.82499999999999
 20
0.0000000000000005
 42
-0.9999999999999983
 10
26.68299999999999
 20
0.0000000000000016
 42
-1.000000000000002
 10
17.31699999999999
 20
0.0000000000000005
 42
-0.9999999999999981
 10
27.191
 20
-0.0000000000000013
 42
-1.000000000000002
 10
16.80899999999999
 20
-0.0000000000000004
 42
-0.9999999999999979
 10
27.69899999999999
 20
0.0000000000000009
 42
-1.000000000000002
 10
16.30099999999999
 20
-0.0000000000000004
 42
-0.9999999999999977
 10
28.20699999999999
 20
-0.0000000000000005
 42
-1.000000000000002
 10
15.79299999999999
 20
0.0000000000000007
 42
-0.9999999999999977
 10
28.715
 20
-0.0000000000000017
 42
-1.000000000000002
 10
15.28499999999999
 20
-0.0000000000000005
 42
-0.9999999999999974
 10
29.22299999999999
 20
0.0000000000000024
 42
-1.000000000000003
 10
14.77699999999999
 20
0.0000000000000008
 42
-0.9999999999999974
 10
29.73099999999999
 20
0.0000000000000012
 42
-1.000000000000003
 10
14.269
 20
-0.0000000000000006
 42
-0.9999999999999972
 10
30.239
 20
-0.0000000000000021
 42
-1.000000000000003
 10
13.76099999999999
 20
-0.0000000000000006
 42
-0.999999999999997
 10
30.74699999999999
 20
0.0000000000000014
 42
-1.000000000000003
 10
13.25299999999999
 20
-0.0000000000000007
 42
-0.9999999999999968
 10
31.255
 20
-0.0000000000000024
 42
-1.000000000000003
 10
12.74499999999999
 20
-0.0000000000000007
 42
-0.9999999999999966
 10
31.76299999999999
 20
0.0000000000000033
 42
-1.000000000000004
 10
12.23699999999999
 20
0.000000000000001
 42
-0.9999999999999966
 10
32.27099999999999
 20
0.0
 10
32.27099999999999
 20
-10.5
 42
-0.414213562373095
 10
30.14399999999999
 20
-12.627
 10
-6.845782376712712
 20
-12.627
 42
-0.198912367379658
 10
-8.349798500296501
 20
-12.00401612358379
 10
-12.17822562504269
 20
-8.175588998837599
 42
0.1989123673796584
 10
-13.50263662620509
 20
-7.627000000000002
 10
-22.59821785879902
 20
-7.627000000000002
 42
-23.57963777157851
 10
-22.59821785879902
 20
-7.372999999999998
 10
-13.50263662620509
 20
-7.372999999999998
 42
-0.1989123673796584
 10
-11.9986205026213
 20
-7.995983876416213
 10
-8.170193377875115
 20
-11.8244110011624
 42
0.198912367379658
 10
-6.845782376712711
 20
-12.373
 10
30.14399999999999
 20
-12.373
 42
0.414213562373095
 10
32.01699999999999
 20
-10.5
  0
LWPOLYLINE
  5
747
330
1F
100
AcDbEntity
  8
TOP_COPPER
100
AcDbPolyline
 90
       84
 70
     1
 43
0.0
 10
-10.01700000000003
 20
0.000000000000003
 10
-10.01700000000003
 20
-3.0
 42
-0.414213562373095
 10
-12.14400000000003
 20
-5.126999999999999
 10
-27.59821785879902
 20
-5.126999999999999
 42
-23.57963777157901
 10
-27.59821785879902
 20
-4.873000000000001
 10
-12.14400000000003
 20
-4.873000000000001
 42
0.414213562373095
 10
-10.27100000000003
 20
-3.0
 10
-10.27100000000003
 20
0.000000000000003
 42
-0.4142135623730961
 10
0.0000000000000008
 20
10.271
 42
-0.9999999999999966
 10
-0.0000000000000009
 20
-9.763
 42
-1.000000000000004
 10
0.0000000000000013
 20
9.763
 42
-0.9999999999999966
 10
-0.0000000000000006
 20
-9.255
 42
-1.000000000000003
 10
0.0000000000000003
 20
9.255
 42
-0.9999999999999968
 10
0.0000000000000011
 20
-8.747000000000002
 42
-1.000000000000003
 10
0.000000000000001
 20
8.747000000000002
 42
-0.999999999999997
 10
-0.0000000000000071
 20
-8.239
 42
-1.000000000000003
 10
-0.0000000000000001
 20
8.239
 42
-0.9999999999999972
 10
-0.0000000000000043
 20
-7.731
 42
-1.000000000000003
 10
0.0000000000000007
 20
7.731
 42
-0.9999999999999974
 10
-0.0000000000000012
 20
-7.223
 42
-1.000000000000003
 10
0.0000000000000008
 20
7.223000000000001
 42
-0.9999999999999974
 10
-0.0000000000000004
 20
-6.715
 42
-1.000000000000002
 10
0.0000000000000002
 20
6.715
 42
-0.9999999999999977
 10
-0.0000000000000075
 20
-6.207
 42
-1.000000000000002
 10
0.0000000000000013
 20
6.207000000000001
 42
-0.9999999999999977
 10
-0.0000000000000063
 20
-5.699
 42
-1.000000000000002
 10
0.0000000000000007
 20
5.699
 42
-0.9999999999999979
 10
-0.0000000000000047
 20
-5.191
 42
-1.000000000000002
 10
-0.0000000000000001
 20
5.191000000000001
 42
-0.9999999999999981
 10
-0.0000000000000024
 20
-4.683
 42
-1.000000000000002
 10
0.0000000000000008
 20
4.683
 42
-0.9999999999999983
 10
-0.0000000000000005
 20
-4.175
 42
-1.000000000000002
 10
0.0000000000000003
 20
4.175
 42
-0.9999999999999986
 10
0.0000000000000009
 20
-3.667
 42
-1.000000000000001
 10
0.0000000000000007
 20
3.667
 42
-0.9999999999999988
 10
-0.0000000000000028
 20
-3.159
 42
-1.000000000000001
 10
-0.0000000000000001
 20
3.159
 42
-0.999999999999999
 10
-0.0000000000000013
 20
-2.651
 42
-1.000000000000001
 10
0.0000000000000005
 20
2.651
 42
-0.9999999999999992
 10
-0.0000000000000004
 20
-2.143
 42
-1.000000000000001
 10
-0.0000000000000001
 20
2.143
 42
-0.9999999999999994
 10
-0.0000000000000022
 20
-1.635
 42
-1.0
 10
0.0000000000000002
 20
1.635
 42
-0.9999999999999997
 10
-0.0000000000000011
 20
-1.127
 42
-1.0
 10
0.0000000000000008
 20
1.127
 42
-0.617402932605319
 10
0.4913930164764863
 20
0.1192558876804868
 42
-6.772172184748946
 10
0.3433023571979775
 20
0.3712580705259276
 42
0.515781949853124
 10
-0.0000000000000003
 20
0.8730000000000001
 42
1.0
 10
-0.0000000000000002
 20
-0.873
 42
0.9999999999999997
 10
-0.0000000000000001
 20
1.381
 42
1.0
 10
-0.0000000000000006
 20
-1.381
 42
0.9999999999999994
 10
-0.0000000000000003
 20
1.889
 42
1.000000000000001
 10
0.000000000000001
 20
-1.889
 42
0.9999999999999992
 10
-0.0000000000000004
 20
2.397
 42
1.000000000000001
 10
0.0000000000000005
 20
-2.397
 42
0.999999999999999
 10
0.0000000000000001
 20
2.905
 42
1.000000000000001
 10
-0.0000000000000003
 20
-2.905
 42
0.9999999999999988
 10
-0.0000000000000005
 20
3.413
 42
1.000000000000001
 10
0.0000000000000029
 20
-3.413
 42
0.9999999999999986
 10
0.0000000000000001
 20
3.921
 42
1.000000000000002
 10
0.0000000000000022
 20
-3.921
 42
0.9999999999999983
 10
-0.0000000000000004
 20
4.429
 42
1.000000000000002
 10
0.000000000000001
 20
-4.429
 42
0.9999999999999981
 10
0.0000000000000001
 20
4.937000000000001
 42
1.000000000000002
 10
-0.0000000000000008
 20
-4.937
 42
0.9999999999999979
 10
-0.0000000000000009
 20
5.445
 42
1.000000000000002
 10
-0.0000000000000029
 20
-5.445
 42
0.9999999999999977
 10
0.0000000000000006
 20
5.953000000000001
 42
1.000000000000002
 10
0.0000000000000042
 20
-5.953
 42
0.9999999999999977
 10
-0.0000000000000002
 20
6.461
 42
1.000000000000002
 10
0.0000000000000033
 20
-6.461
 42
0.9999999999999974
 10
0.0000000000000014
 20
6.969000000000001
 42
1.000000000000003
 10
0.0000000000000027
 20
-6.969
 42
0.9999999999999974
 10
-0.000000000000001
 20
7.477
 42
1.000000000000003
 10
0.0000000000000014
 20
-7.477
 42
0.9999999999999972
 10
-0.0000000000000004
 20
7.985
 42
1.000000000000003
 10
-0.0000000000000016
 20
-7.985
 42
0.999999999999997
 10
0.0000000000000015
 20
8.493
 42
1.000000000000003
 10
0.000000000000008
 20
-8.493
 42
0.9999999999999968
 10
-0.0000000000000004
 20
9.001
 42
1.000000000000003
 10
0.0000000000000042
 20
-9.001
 42
0.9999999999999966
 10
0.000000000000002
 20
9.508999999999999
 42
1.000000000000004
 10
0.0000000000000037
 20
-9.508999999999999
 42
0.9999999999999966
 10
-0.0000000000000012
 20
10.017
 42
0.4142135623730961
  0
LWPOLYLINE
  5
749
330
1F
100
AcDbEntity
  8
TOP_COPPER
100
AcDbPolyline
 90
       92
 70
     1
 43
0.0
 10
-27.59821785879902
 20
-10.127
 10
-14.92764925345206
 20
-10.127
 42
-0.1989123673796579
 10
-13.60323825228966
 20
-10.6755889988376
 10
-12.27481112754347
 20
-12.00401612358379
 42
0.1989123673796578
 10
-10.77079500395968
 20
-12.627
 10
9.855999999999963
 20
-12.627
 42
0.4142135623730955
 10
11.98299999999996
 20
-10.5
 10
11.98299999999996
 20
0.0
 42
-0.4142135623730961
 10
21.99999999999999
 20
10.017
 42
-0.9999999999999966
 10
21.99999999999999
 20
-9.508999999999999
 42
-1.000000000000004
 10
21.99999999999999
 20
9.508999999999999
 42
-0.9999999999999966
 10
22.0
 20
-9.001
 42
-1.000000000000003
 10
21.99999999999999
 20
9.001
 42
-0.9999999999999968
 10
21.99999999999999
 20
-8.493
 42
-1.000000000000003
 10
21.99999999999999
 20
8.493
 42
-0.999999999999997
 10
21.99999999999999
 20
-7.985
 42
-1.000000000000003
 10
21.99999999999999
 20
7.985
 42
-0.9999999999999972
 10
21.99999999999999
 20
-7.477
 42
-1.000000000000003
 10
21.99999999999999
 20
7.477
 42
-0.9999999999999974
 10
22.0
 20
-6.969
 42
-1.000000000000003
 10
22.0
 20
6.969000000000001
 42
-0.9999999999999974
 10
22.0
 20
-6.461
 42
-1.000000000000002
 10
21.99999999999999
 20
6.461
 42
-0.9999999999999977
 10
22.0
 20
-5.953
 42
-1.000000000000002
 10
21.99999999999999
 20
5.953000000000001
 42
-0.9999999999999977
 10
21.99999999999999
 20
-5.445
 42
-1.000000000000002
 10
21.99999999999999
 20
5.445
 42
-0.9999999999999979
 10
21.99999999999999
 20
-4.937
 42
-1.000000000000002
 10
21.99999999999999
 20
4.937000000000001
 42
-0.9999999999999981
 10
21.99999999999999
 20
-4.429
 42
-1.000000000000002
 10
21.99999999999999
 20
4.429
 42
-0.9999999999999983
 10
21.99999999999999
 20
-3.921
 42
-1.000000000000002
 10
21.99999999999999
 20
3.921
 42
-0.9999999999999986
 10
22.0
 20
-3.413
 42
-1.000000000000001
 10
21.99999999999999
 20
3.413
 42
-0.9999999999999988
 10
21.99999999999999
 20
-2.905
 42
-1.000000000000001
 10
21.99999999999999
 20
2.905
 42
-0.999999999999999
 10
21.99999999999999
 20
-2.397
 42
-1.000000000000001
 10
21.99999999999999
 20
2.397
 42
-0.9999999999999992
 10
22.0
 20
-1.889
 42
-1.000000000000001
 10
21.99999999999999
 20
1.889
 42
-0.9999999999999994
 10
21.99999999999999
 20
-1.381
 42
-1.0
 10
21.99999999999999
 20
1.381
 42
-0.9999999999999997
 10
21.99999999999999
 20
-0.873
 42
-1.0
 10
21.99999999999999
 20
0.8730000000000001
 42
-0.515781949853124
 10
22.34330235719797
 20
0.3712580705259276
 42
6.772172184748946
 10
22.49139301647648
 20
0.1192558876804871
 42
0.617402932605319
 10
21.99999999999999
 20
1.127
 42
1.0
 10
21.99999999999999
 20
-1.127
 42
0.9999999999999997
 10
21.99999999999999
 20
1.635
 42
1.0
 10
21.99999999999999
 20
-1.635
 42
0.9999999999999994
 10
21.99999999999999
 20
2.143
 42
1.000000000000001
 10
21.99999999999999
 20
-2.143
 42
0.9999999999999992
 10
21.99999999999999
 20
2.651
 42
1.000000000000001
 10
21.99999999999999
 20
-2.651
 42
0.999999999999999
 10
21.99999999999999
 20
3.159
 42
1.000000000000001
 10
21.99999999999999
 20
-3.159
 42
0.9999999999999988
 10
21.99999999999999
 20
3.667
 42
1.000000000000001
 10
21.99999999999999
 20
-3.667
 42
0.9999999999999986
 10
21.99999999999999
 20
4.175
 42
1.000000000000002
 10
21.99999999999999
 20
-4.175
 42
0.9999999999999983
 10
21.99999999999999
 20
4.683
 42
1.000000000000002
 10
21.99999999999999
 20
-4.683
 42
0.9999999999999981
 10
21.99999999999999
 20
5.191000000000001
 42
1.000000000000002
 10
21.99999999999999
 20
-5.191
 42
0.9999999999999979
 10
21.99999999999999
 20
5.699
 42
1.000000000000002
 10
21.99999999999999
 20
-5.699
 42
0.9999999999999977
 10
21.99999999999999
 20
6.207000000000001
 42
1.000000000000002
 10
21.99999999999999
 20
-6.207
 42
0.9999999999999977
 10
21.99999999999999
 20
6.715
 42
1.000000000000002
 10
21.99999999999999
 20
-6.715
 42
0.9999999999999974
 10
22.0
 20
7.223000000000001
 42
1.000000000000003
 10
21.99999999999999
 20
-7.223
 42
0.9999999999999974
 10
21.99999999999999
 20
7.731
 42
1.000000000000003
 10
21.99999999999999
 20
-7.731
 42
0.9999999999999972
 10
21.99999999999999
 20
8.239
 42
1.000000000000003
 10
21.99999999999999
 20
-8.239
 42
0.999999999999997
 10
21.99999999999999
 20
8.747000000000002
 42
1.000000000000003
 10
22.0
 20
-8.747000000000002
 42
0.9999999999999968
 10
21.99999999999999
 20
9.255
 42
1.000000000000003
 10
22.0
 20
-9.255
 42
0.9999999999999966
 10
22.0
 20
9.763
 42
1.000000000000004
 10
21.99999999999999
 20
-9.763
 42
0.9999999999999966
 10
21.99999999999999
 20
10.271
 42
0.4142135623730961
 10
11.72899999999996
 20
0.0000000000000029
 10
11.72899999999996
 20
-10.5
 42
-0.4142135623730955
 10
9.855999999999963
 20
-12.373
 10
-10.77079500395968
 20
-12.373
 42
-0.1989123673796578
 10
-12.09520600512209
 20
-11.8244110011624
 10
-13.42363312986828
 20
-10.49598387641621
 42
0.1989123673796579
 10
-14.92764925345206
 20
-9.873000000000001
 10
-27.59821785879902
 20
-9.873000000000001
 42
23.57963777157901
  0
LWPOLYLINE
  5
74B
330
1F
100
AcDbEntity
  8
TOP_COPPER
100
AcDbPolyline
 90
       85
 70
     0
 43
0.0
 10
33.98299999999996
 20
0.0
 42
-0.4142135623730961
 10
43.99999999999999
 20
10.017
 42
-0.9999999999999966
 10
43.99999999999999
 20
-9.508999999999999
 42
-1.000000000000004
 10
43.99999999999999
 20
9.508999999999999
 42
-0.9999999999999966
 10
44.0
 20
-9.001
 42
-1.000000000000003
 10
43.99999999999999
 20
9.001
 42
-0.9999999999999968
 10
43.99999999999999
 20
-8.493
 42
-1.000000000000003
 10
43.99999999999999
 20
8.493
 42
-0.999999999999997
 10
43.99999999999999
 20
-7.985
 42
-1.000000000000003
 10
43.99999999999999
 20
7.985
 42
-0.9999999999999972
 10
43.99999999999999
 20
-7.477
 42
-1.000000000000003
 10
43.99999999999999
 20
7.477
 42
-0.9999999999999974
 10
43.99999999999999
 20
-6.969
 42
-1.000000000000003
 10
43.99999999999999
 20
6.969000000000001
 42
-0.9999999999999974
 10
44.0
 20
-6.461
 42
-1.000000000000002
 10
43.99999999999999
 20
6.461
 42
-0.9999999999999977
 10
43.99999999999999
 20
-5.953
 42
-1.000000000000002
 10
43.99999999999999
 20
5.953000000000001
 42
-0.9999999999999977
 10
43.99999999999999
 20
-5.445
 42
-1.000000000000002
 10
43.99999999999999
 20
5.445
 42
-0.9999999999999979
 10
43.99999999999999
 20
-4.937
 42
-1.000000000000002
 10
43.99999999999999
 20
4.937000000000001
 42
-0.9999999999999981
 10
43.99999999999999
 20
-4.429
 42
-1.000000000000002
 10
43.99999999999999
 20
4.429
 42
-0.9999999999999983
 10
43.99999999999999
 20
-3.921
 42
-1.000000000000002
 10
43.99999999999999
 20
3.921
 42
-0.9999999999999986
 10
43.99999999999999
 20
-3.413
 42
-1.000000000000001
 10
43.99999999999999
 20
3.413
 42
-0.9999999999999988
 10
43.99999999999999
 20
-2.905
 42
-1.000000000000001
 10
43.99999999999999
 20
2.905
 42
-0.999999999999999
 10
43.99999999999999
 20
-2.397
 42
-1.000000000000001
 10
43.99999999999999
 20
2.397
 42
-0.9999999999999992
 10
43.99999999999999
 20
-1.889
 42
-1.000000000000001
 10
43.99999999999999
 20
1.889
 42
-0.9999999999999994
 10
43.99999999999999
 20
-1.381
 42
-1.0
 10
43.99999999999999
 20
1.381
 42
-0.9999999999999997
 10
43.99999999999999
 20
-0.873
 42
-1.0
 10
43.99999999999999
 20
0.8730000000000001
 42
-0.515781949853124
 10
44.34330235719797
 20
0.3712580705259276
 42
6.772172184748946
 10
44.49139301647648
 20
0.1192558876804871
 42
0.617402932605319
 10
43.99999999999999
 20
1.127
 42
1.0
 10
43.99999999999999
 20
-1.127
 42
0.9999999999999997
 10
43.99999999999999
 20
1.635
 42
1.0
 10
43.99999999999999
 20
-1.635
 42
0.9999999999999994
 10
43.99999999999999
 20
2.143
 42
1.000000000000001
 10
43.99999999999999
 20
-2.143
 42
0.9999999999999992
 10
43.99999999999999
 20
2.651
 42
1.000000000000001
 10
43.99999999999999
 20
-2.651
 42
0.999999999999999
 10
44.00000000000001
 20
3.159
 42
1.000000000000001
 10
43.99999999999999
 20
-3.159
 42
0.9999999999999988
 10
43.99999999999999
 20
3.667
 42
1.000000000000001
 10
43.99999999999999
 20
-3.667
 42
0.9999999999999986
 10
43.99999999999999
 20
4.175
 42
1.000000000000002
 10
43.99999999999999
 20
-4.175
 42
0.9999999999999983
 10
43.99999999999999
 20
4.683
 42
1.000000000000002
 10
43.99999999999999
 20
-4.683
 42
0.9999999999999981
 10
44.0
 20
5.191000000000001
 42
1.000000000000002
 10
43.99999999999999
 20
-5.191
 42
0.9999999999999979
 10
43.99999999999999
 20
5.699
 42
1.000000000000002
 10
43.99999999999999
 20
-5.699
 42
0.9999999999999977
 10
43.99999999999999
 20
6.207000000000001
 42
1.000000000000002
 10
43.99999999999998
 20
-6.207
 42
0.9999999999999977
 10
43.99999999999999
 20
6.715
 42
1.000000000000002
 10
43.99999999999999
 20
-6.715
 42
0.9999999999999974
 10
43.99999999999999
 20
7.223000000000001
 42
1.000000000000003
 10
43.99999999999999
 20
-7.223
 42
0.9999999999999974
 10
43.99999999999999
 20
7.731
 42
1.000000000000003
 10
43.99999999999999
 20
-7.731
 42
0.9999999999999972
 10
43.99999999999999
 20
8.239
 42
1.000000000000003
 10
43.99999999999999
 20
-8.239
 42
0.999999999999997
 10
43.99999999999999
 20
8.747000000000002
 42
1.000000000000003
 10
43.99999999999999
 20
-8.747000000000002
 42
0.9999999999999968
 10
43.99999999999999
 20
9.255
 42
1.000000000000003
 10
43.99999999999999
 20
-9.255
 42
0.9999999999999966
 10
43.99999999999999
 20
9.763
 42
1.000000000000004
 10
43.99999999999999
 20
-9.763
 42
0.9999999999999966
 10
43.99999999999999
 20
10.271
 42
0.4142135623730961
 10
33.72899999999996
 20
-0.0000000000000001
 10
33.72899999999997
 20
-13.0
 42
-0.4142135623730953
 10
31.85599999999997
 20
-14.873
 10
-27.59821785879902
 20
-14.873
 42
23.57963777157901
 10
-27.59821785879902
 20
-15.127
 10
31.85599999999997
 20
-15.127
 42
0.4142135623730953
 10
33.98299999999996
 20
-13.0
 10
33.98299999999996
 20
0.0
  0
LWPOLYLINE
  5
A01
330
1F
100
AcDbEntity
  8
TOP_COPPER
100
AcDbPolyline
 90
       90
 70
     1
 43
0.0
 10
-27.59821785879901
 20
-20.127
 10
-9.504488518489874
 20
-20.127
 42
0.1989123673796578
 10
-8.000472394906089
 20
-19.50401612358379
 10
-6.672045270159893
 20
-18.1755889988376
 42
-0.1989123673796582
 10
-5.347634268997496
 20
-17.627
 10
62.88665234527558
 20
-17.627
 42
-0.414213562373095
 10
64.75965234527558
 20
-19.5
 10
64.75965234527558
 20
-32.50330410734405
 42
-0.4065111987584683
 10
55.0
 20
-42.009
 42
-1.000000000000004
 10
55.0
 20
-22.99099999999999
 42
-0.9999999999999966
 10
55.00000000000001
 20
-41.501
 42
-1.000000000000003
 10
55.0
 20
-23.49900000000001
 42
-0.9999999999999968
 10
55.0
 20
-40.99300000000001
 42
-1.000000000000003
 10
55.0
 20
-24.00699999999999
 42
-0.999999999999997
 10
55.0
 20
-40.485
 42
-1.000000000000003
 10
55.0
 20
-24.515
 42
-0.9999999999999972
 10
55.0
 20
-39.977
 42
-1.000000000000003
 10
55.0
 20
-25.02300000000001
 42
-0.9999999999999974
 10
55.0
 20
-39.46900000000001
 42
-1.000000000000003
 10
55.0
 20
-25.53099999999999
 42
-0.9999999999999974
 10
55.00000000000001
 20
-38.961
 42
-1.000000000000002
 10
55.0
 20
-26.039
 42
-0.9999999999999977
 10
55.0
 20
-38.453
 42
-1.000000000000002
 10
55.0
 20
-26.54699999999999
 42
-0.9999999999999977
 10
55.0
 20
-37.94500000000001
 42
-1.000000000000002
 10
55.0
 20
-27.05499999999999
 42
-0.9999999999999979
 10
55.0
 20
-37.437
 42
-1.000000000000002
 10
55.0
 20
-27.563
 42
-0.9999999999999981
 10
55.0
 20
-36.929
 42
-1.000000000000002
 10
55.0
 20
-28.07099999999999
 42
-0.9999999999999983
 10
55.0
 20
-36.42100000000001
 42
-1.000000000000002
 10
55.0
 20
-28.57899999999999
 42
-0.9999999999999986
 10
55.0
 20
-35.913
 42
-1.000000000000001
 10
55.0
 20
-29.087
 42
-0.9999999999999988
 10
55.0
 20
-35.405
 42
-1.000000000000001
 10
55.0
 20
-29.59499999999999
 42
-0.999999999999999
 10
55.0
 20
-34.89700000000001
 42
-1.000000000000001
 10
55.0
 20
-30.10299999999999
 42
-0.9999999999999992
 10
55.0
 20
-34.389
 42
-1.000000000000001
 10
55.0
 20
-30.611
 42
-0.9999999999999994
 10
55.0
 20
-33.881
 42
-1.0
 10
55.0
 20
-31.119
 42
-0.9999999999999997
 10
55.0
 20
-33.373
 42
-1.0
 10
55.0
 20
-31.627
 42
-0.515781949853124
 10
55.34330235719798
 20
-32.12874192947407
 42
6.772172184748946
 10
55.49139301647649
 20
-32.38074411231951
 42
0.617402932605319
 10
55.0
 20
-31.373
 42
1.0
 10
55.0
 20
-33.627
 42
0.9999999999999997
 10
55.0
 20
-30.86499999999999
 42
1.0
 10
55.0
 20
-34.13500000000001
 42
0.9999999999999994
 10
55.0
 20
-30.357
 42
1.000000000000001
 10
55.0
 20
-34.643
 42
0.9999999999999992
 10
55.0
 20
-29.849
 42
1.000000000000001
 10
55.0
 20
-35.151
 42
0.999999999999999
 10
55.00000000000001
 20
-29.34100000000001
 42
1.000000000000001
 10
54.99999999999999
 20
-35.65899999999999
 42
0.9999999999999988
 10
55.0
 20
-28.833
 42
1.000000000000001
 10
55.0
 20
-36.167
 42
0.9999999999999986
 10
55.0
 20
-28.325
 42
1.000000000000002
 10
55.0
 20
-36.675
 42
0.9999999999999983
 10
55.0
 20
-27.81700000000001
 42
1.000000000000002
 10
54.99999999999999
 20
-37.18299999999999
 42
0.9999999999999981
 10
55.00000000000001
 20
-27.309
 42
1.000000000000002
 10
54.99999999999999
 20
-37.691
 42
0.9999999999999979
 10
55.0
 20
-26.801
 42
1.000000000000002
 10
54.99999999999999
 20
-38.199
 42
0.9999999999999977
 10
55.0
 20
-26.29300000000001
 42
1.000000000000002
 10
54.99999999999999
 20
-38.70699999999999
 42
0.9999999999999977
 10
55.0
 20
-25.785
 42
1.000000000000002
 10
54.99999999999999
 20
-39.215
 42
0.9999999999999974
 10
55.0
 20
-25.277
 42
1.000000000000003
 10
55.0
 20
-39.723
 42
0.9999999999999974
 10
55.0
 20
-24.76900000000001
 42
1.000000000000003
 10
55.0
 20
-40.23099999999999
 42
0.9999999999999972
 10
55.0
 20
-24.261
 42
1.000000000000003
 10
54.99999999999999
 20
-40.739
 42
0.999999999999997
 10
55.0
 20
-23.753
 42
1.000000000000003
 10
55.0
 20
-41.247
 42
0.9999999999999968
 10
55.0
 20
-23.245
 42
1.000000000000003
 10
55.0
 20
-41.75500000000001
 42
0.9999999999999966
 10
55.0
 20
-22.73700000000001
 42
1.000000000000004
 10
55.0
 20
-42.26299999999999
 42
0.4068052596645763
 10
65.01377915674193
 20
-32.49999999999996
 10
65.01365234527557
 20
-19.5
 42
0.414213562373095
 10
62.88665234527558
 20
-17.373
 10
-5.347634268997496
 20
-17.373
 42
0.1989123673796582
 10
-6.851650392581277
 20
-17.99598387641621
 10
-8.18007751732747
 20
-19.3244110011624
 42
-0.1989123673796578
 10
-9.504488518489874
 20
-19.873
 10
-27.59821785879897
 20
-19.873
 42
23.57963777157901
  0
LWPOLYLINE
  5
A03
330
1F
100
AcDbEntity
  8
TOP_COPPER
100
AcDbPolyline
 90
       90
 70
     1
 43
0.0
 10
-27.59821785879901
 20
-25.127
 10
-5.622141366765407
 20
-25.127
 42
0.198912367379658
 10
-4.11812524318162
 20
-24.50401612358379
 10
-0.289698118435427
 20
-20.6755889988376
 42
-0.1989123673796578
 10
1.034712882726978
 20
-20.127
 10
40.88673724505072
 20
-20.127
 42
-0.414213562373095
 10
42.75973724505072
 20
-22.0
 10
42.7596953333595
 20
-32.5
 42
-0.4066129906005157
 10
33.0
 20
-42.009
 42
-1.000000000000004
 10
33.0
 20
-22.99099999999999
 42
-0.9999999999999966
 10
33.00000000000001
 20
-41.501
 42
-1.000000000000003
 10
33.0
 20
-23.49900000000001
 42
-0.9999999999999968
 10
33.0
 20
-40.99300000000001
 42
-1.000000000000003
 10
33.0
 20
-24.00699999999999
 42
-0.999999999999997
 10
33.0
 20
-40.485
 42
-1.000000000000003
 10
33.0
 20
-24.515
 42
-0.9999999999999972
 10
33.0
 20
-39.977
 42
-1.000000000000003
 10
33.0
 20
-25.02300000000001
 42
-0.9999999999999974
 10
33.0
 20
-39.46900000000001
 42
-1.000000000000003
 10
33.0
 20
-25.53099999999999
 42
-0.9999999999999974
 10
33.00000000000001
 20
-38.961
 42
-1.000000000000002
 10
33.0
 20
-26.039
 42
-0.9999999999999977
 10
33.0
 20
-38.453
 42
-1.000000000000002
 10
33.0
 20
-26.54699999999999
 42
-0.9999999999999977
 10
33.0
 20
-37.94500000000001
 42
-1.000000000000002
 10
33.0
 20
-27.05499999999999
 42
-0.9999999999999979
 10
33.0
 20
-37.437
 42
-1.000000000000002
 10
33.0
 20
-27.563
 42
-0.9999999999999981
 10
33.0
 20
-36.929
 42
-1.000000000000002
 10
33.0
 20
-28.07099999999999
 42
-0.9999999999999983
 10
33.0
 20
-36.42100000000001
 42
-1.000000000000002
 10
33.0
 20
-28.57899999999999
 42
-0.9999999999999986
 10
33.0
 20
-35.913
 42
-1.000000000000001
 10
33.0
 20
-29.087
 42
-0.9999999999999988
 10
33.0
 20
-35.405
 42
-1.000000000000001
 10
33.0
 20
-29.59499999999999
 42
-0.999999999999999
 10
33.0
 20
-34.89700000000001
 42
-1.000000000000001
 10
33.0
 20
-30.10299999999999
 42
-0.9999999999999992
 10
33.0
 20
-34.389
 42
-1.000000000000001
 10
33.0
 20
-30.611
 42
-0.9999999999999994
 10
33.0
 20
-33.881
 42
-1.0
 10
33.0
 20
-31.119
 42
-0.9999999999999997
 10
33.0
 20
-33.373
 42
-1.0
 10
33.0
 20
-31.627
 42
-0.515781949853124
 10
33.34330235719798
 20
-32.12874192947407
 42
6.772172184748946
 10
33.49139301647649
 20
-32.38074411231951
 42
0.617402932605319
 10
33.0
 20
-31.373
 42
1.0
 10
33.0
 20
-33.627
 42
0.9999999999999997
 10
33.0
 20
-30.86499999999999
 42
1.0
 10
33.0
 20
-34.13500000000001
 42
0.9999999999999994
 10
33.0
 20
-30.357
 42
1.000000000000001
 10
33.0
 20
-34.643
 42
0.9999999999999992
 10
33.0
 20
-29.849
 42
1.000000000000001
 10
33.0
 20
-35.151
 42
0.999999999999999
 10
33.00000000000001
 20
-29.34100000000001
 42
1.000000000000001
 10
32.99999999999999
 20
-35.65899999999999
 42
0.9999999999999988
 10
33.0
 20
-28.833
 42
1.000000000000001
 10
33.0
 20
-36.167
 42
0.9999999999999986
 10
33.0
 20
-28.325
 42
1.000000000000002
 10
33.0
 20
-36.675
 42
0.9999999999999983
 10
33.0
 20
-27.81700000000001
 42
1.000000000000002
 10
32.99999999999999
 20
-37.18299999999999
 42
0.9999999999999981
 10
33.00000000000001
 20
-27.309
 42
1.000000000000002
 10
32.99999999999999
 20
-37.691
 42
0.9999999999999979
 10
33.0
 20
-26.801
 42
1.000000000000002
 10
32.99999999999999
 20
-38.199
 42
0.9999999999999977
 10
33.0
 20
-26.29300000000001
 42
1.000000000000002
 10
32.99999999999999
 20
-38.70699999999999
 42
0.9999999999999977
 10
33.0
 20
-25.785
 42
1.000000000000002
 10
32.99999999999999
 20
-39.215
 42
0.9999999999999974
 10
33.0
 20
-25.277
 42
1.000000000000003
 10
33.0
 20
-39.723
 42
0.9999999999999974
 10
33.0
 20
-24.76900000000001
 42
1.000000000000003
 10
33.0
 20
-40.23099999999999
 42
0.9999999999999972
 10
33.0
 20
-24.261
 42
1.000000000000003
 10
32.99999999999999
 20
-40.739
 42
0.999999999999997
 10
33.0
 20
-23.753
 42
1.000000000000003
 10
33.0
 20
-41.247
 42
0.9999999999999968
 10
33.0
 20
-23.245
 42
1.000000000000003
 10
33.0
 20
-41.75500000000001
 42
0.9999999999999966
 10
33.0
 20
-22.73700000000001
 42
1.000000000000004
 10
33.00000000000001
 20
-42.26299999999999
 42
0.4068052596645763
 10
43.01377915674194
 20
-32.49999999999996
 10
43.01373724505073
 20
-22.0
 42
0.414213562373095
 10
40.88673724505072
 20
-19.873
 10
1.034712882726978
 20
-19.873
 42
0.1989123673796578
 10
-0.4693032408568096
 20
-20.49598387641621
 10
-4.297730365603003
 20
-24.3244110011624
 42
-0.198912367379658
 10
-5.622141366765407
 20
-24.873
 10
-27.59821785879889
 20
-24.873
 42
23.57963777157901
  0
CIRCLE
  5
D73
330
1F
100
AcDbEntity
  8
DRILL
100
AcDbCircle
 10
-29.09283185578954
 20
-5.0
 30
0.0
 40
0.45
  0
CIRCLE
  5
D8E
330
1F
100
AcDbEntity
  8
DRILL
100
AcDbCircle
 10
-24.09283185578954
 20
-2.5
 30
0.0
 40
0.45
  0
CIRCLE
  5
D8F
330
1F
100
AcDbEntity
  8
DRILL
100
AcDbCircle
 10
-24.09283185578954
 20
-7.5
 30
0.0
 40
0.45
  0
CIRCLE
  5
D90
330
1F
100
AcDbEntity
  8
DRILL
100
AcDbCircle
 10
-29.09283185578954
 20
-10.0
 30
0.0
 40
0.45
  0
CIRCLE
  5
D91
330
1F
100
AcDbEntity
  8
DRILL
100
AcDbCircle
 10
-24.09283185578953
 20
-12.5
 30
0.0
 40
0.45
  0
CIRCLE
  5
D92
330
1F
100
AcDbEntity
  8
DRILL
100
AcDbCircle
 10
-29.09283185578954
 20
-15.0
 30
0.0
 40
0.45
  0
CIRCLE
  5
D93
330
1F
100
AcDbEntity
  8
DRILL
100
AcDbCircle
 10
-24.09283185578958
 20
-17.5
 30
0.0
 40
0.45
  0
CIRCLE
  5
D94
330
1F
100
AcDbEntity
  8
DRILL
100
AcDbCircle
 10
-29.09283185578954
 20
-20.0
 30
0.0
 40
0.45
  0
CIRCLE
  5
D95
330
1F
100
AcDbEntity
  8
DRILL
100
AcDbCircle
 10
-24.09283185578959
 20
-22.5
 30
0.0
 40
0.45
  0
CIRCLE
  5
D96
330
1F
100
AcDbEntity
  8
DRILL
100
AcDbCircle
 10
-29.09283185578947
 20
-24.99999999999929
 30
0.0
 40
0.45
  0
CIRCLE
  5
D97
330
1F
100
AcDbEntity
  8
DRILL
100
AcDbCircle
 10
-24.09283185578954
 20
-27.5
 30
0.0
 40
0.45
  0
CIRCLE
  5
D98
330
1F
100
AcDbEntity
  8
DRILL
100
AcDbCircle
 10
-29.09283185578954
 20
-30.0
 30
0.0
 40
0.45
  0
LWPOLYLINE
  5
DA2
330
1F
100
AcDbEntity
  8
DRILL
100
AcDbPolyline
 90
        8
 70
     1
 43
0.0
 10
-35.59283185578953
 20
13.271
 10
-35.59283185578953
 20
-45.77100000000006
 42
0.414213562373095
 10
-33.59283185578953
 20
-47.77100000000006
 10
68.26665617703972
 20
-47.77100000000006
 42
0.414213562373095
 10
70.26665617703972
 20
-45.77100000000006
 10
70.26665617703972
 20
13.271
 42
0.414213562373095
 10
68.26665617703972
 20
15.271
 10
-33.59283185578953
 20
15.271
 42
0.414213562373095
  0
LWPOLYLINE
  5
DA5
330
1F
100
AcDbEntity
  8
BOTTOM_SOLDERMASK
100
AcDbPolyline
 90
        6
 70
     1
 43
0.0
 10
-20.54405679960896
 20
15.271
 10
-20.54405679960896
 20
-47.77100000000006
 10
68.26665617703972
 20
-47.77100000000006
 42
0.414213562373095
 10
70.26665617703972
 20
-45.77100000000006
 10
70.26665617703972
 20
13.271
 42
0.414213562373095
 10
68.26665617703972
 20
15.271
  0
LWPOLYLINE
  5
DBA
330
1F
100
AcDbEntity
  8
TOP_SOLDERMASK
100
AcDbPolyline
 90
        6
 70
     1
 43
0.0
 10
-20.54405679960896
 20
15.271
 10
-20.54405679960896
 20
-47.77100000000006
 10
68.26665617703972
 20
-47.77100000000006
 42
0.414213562373095
 10
70.26665617703972
 20
-45.77100000000006
 10
70.26665617703972
 20
13.271
 42
0.414213562373095
 10
68.26665617703972
 20
15.271
  0
MTEXT
  5
E59
330
1F
100
AcDbEntity
  8
0
100
AcDbMText
 10
-175.9809410926755
 20
131.8161447973031
 30
0.0
 40
5.08
 41
164.2533333333333
 71
     1
 72
     1
  3
{Amphenol Antenna Solutions\P1123 INDUSTRIAL PKWY SW\PCONOVER, NC 28613\PPhone (828)324-6971\PFax (828)327-6027\P\PAmphenol Antenna Solutions Contact:\PAndrew Garza ext.403\PAGARZA@amphenol-antennas.com\P\PPN: GARZA-01\PREV A\P\PMaterial Specificati
  1
ons\PThickness: 30 mil\PDielectric Constant: 2.55\PLoss tangent:0.0018\P\PProcessing and Finishing\PPlating: Tin Plate\PSolder Mask: Bottomlayer\PPlated thru holes:N/A\PTooling Holes; TBD}
 73
     1
 44
1.0
1001
ACAD
1000
ACAD_MTEXT_DEFINED_HEIGHT_BEGIN
1070
    46
1040
203.2
1000
ACAD_MTEXT_DEFINED_HEIGHT_END
  0
MTEXT
  5
E5F
330
1F
100
AcDbEntity
  8
TOP_COPPER
100
AcDbMText
 10
-32.03777817065314
 20
-36.73446276165353
 30
0.0
 40
1.0
 41
28.03690512819477
 71
     1
 72
     1
  1
{GARZA-01 REV A}
 73
     1
 44
1.0
1001
ACAD
1000
ACAD_MTEXT_DEFINED_HEIGHT_BEGIN
1070
    46
1040
39.0
1000
ACAD_MTEXT_DEFINED_HEIGHT_END
  0
ENDSEC
  0
SECTION
  2
OBJECTS
  0
DICTIONARY
  5
C
330
0
100
AcDbDictionary
281
     1
  3
ACAD_GROUP
350
D
  3
ACAD_IMAGE_VARS
350
DC
  3
ACAD_LAYOUT
350
1A
  3
ACAD_MLINESTYLE
350
17
  3
ACAD_PLOTSETTINGS
350
19
  3
ACAD_PLOTSTYLENAME
350
E
  3
ACAD_SCALELIST
350
B6
  3
AcDbVariableDictionary
350
66
  3
APPDATA
350
E1
  3
DWGPROPS
350
E74
  0
DICTIONARY
  5
FB
330
2
100
AcDbDictionary
280
     1
281
     1
  3
ACAD_LAYERSTATES
360
FC
  3
ACLYDICTIONARY
360
DB9
  0
DICTIONARY
  5
D
102
{ACAD_REACTORS
330
C
102
}
330
C
100
AcDbDictionary
281
     1
  0
RASTERVARIABLES
  5
DC
102
{ACAD_REACTORS
330
C
102
}
330
C
100
AcDbRasterVariables
 90
        0
 70
     1
 71
     1
 72
     5
  0
DICTIONARY
  5
1A
102
{ACAD_REACTORS
330
C
102
}
330
C
100
AcDbDictionary
281
     1
  3
Model
350
22
  3
Sheet1
350
59
  3
Sheet2
350
5E
  0
DICTIONARY
  5
17
102
{ACAD_REACTORS
330
C
102
}
330
C
100
AcDbDictionary
281
     1
  3
Standard
350
18
  0
DICTIONARY
  5
19
102
{ACAD_REACTORS
330
C
102
}
330
C
100
AcDbDictionary
281
     1
  0
ACDBDICTIONARYWDFLT
  5
E
102
{ACAD_REACTORS
330
C
102
}
330
C
100
AcDbDictionary
281
     1
  3
Normal
350
F
100
AcDbDictionaryWithDefault
340
F
  0
DICTIONARY
  5
B6
102
{ACAD_REACTORS
330
C
102
}
330
C
100
AcDbDictionary
281
     1
  3
A0
350
B7
  3
A1
350
B8
  3
A2
350
B9
  3
A3
350
BA
  3
A4
350
BB
  3
A5
350
BC
  3
A6
350
BD
  3
A7
350
BE
  3
A8
350
BF
  3
A9
350
C0
  3
B0
350
C1
  3
B1
350
C2
  3
B2
350
C3
  3
B3
350
C4
  3
B4
350
C5
  3
B5
350
C6
  3
B6
350
C7
  3
B7
350
C8
  3
B8
350
C9
  3
B9
350
CA
  3
C0
350
CB
  3
C1
350
CC
  3
C2
350
CD
  3
C3
350
CE
  3
C4
350
CF
  3
C5
350
D0
  3
C6
350
D1
  3
C7
350
D2
  3
C8
350
D3
  3
C9
350
D4
  3
D0
350
D5
  3
D1
350
D6
  3
D2
350
D7
  0
DICTIONARY
  5
66
102
{ACAD_REACTORS
330
C
102
}
330
C
100
AcDbDictionary
281
     1
  3
CANNOSCALE
350
E5C
  3
DIMASSOC
350
67
  3
HIDETEXT
350
6B
  0
DICTIONARY
  5
E1
102
{ACAD_REACTORS
330
C
102
}
330
C
100
AcDbDictionary
281
     1
  0
XRECORD
  5
E74
102
{ACAD_REACTORS
330
C
102
}
330
C
100
AcDbXrecord
280
     1
  1
DWGPROPS COOKIE
  2

  3

  4

  6

  7

  8
andrew
  9

300
=
301
=
302
=
303
=
304
=
305
=
306
=
307
=
308
=
309
=
 40
0.0
 41
2452643.063384271
 42
2456687.686097014
  1

 90
        0
  0
DICTIONARY
  5
FC
102
{ACAD_REACTORS
330
FB
102
}
330
FB
100
AcDbDictionary
281
     1
  3
ARGON_LAYERP_1
350
FD
  3
ARGON_LAYERP_10
350
131
  3
ARGON_LAYERP_11
350
132
  3
ARGON_LAYERP_12
350
291
  3
ARGON_LAYERP_13
350
292
  3
ARGON_LAYERP_14
350
295
  3
ARGON_LAYERP_15
350
296
  3
ARGON_LAYERP_16
350
297
  3
ARGON_LAYERP_17
350
298
  3
ARGON_LAYERP_18
350
299
  3
ARGON_LAYERP_19
350
29A
  3
ARGON_LAYERP_2
350
105
  3
ARGON_LAYERP_20
350
29B
  3
ARGON_LAYERP_21
350
29C
  3
ARGON_LAYERP_22
350
29D
  3
ARGON_LAYERP_23
350
29E
  3
ARGON_LAYERP_24
350
29F
  3
ARGON_LAYERP_25
350
2A0
  3
ARGON_LAYERP_26
350
2A1
  3
ARGON_LAYERP_27
350
2A2
  3
ARGON_LAYERP_28
350
2B7
  3
ARGON_LAYERP_29
350
2B8
  3
ARGON_LAYERP_3
350
10D
  3
ARGON_LAYERP_30
350
31E
  3
ARGON_LAYERP_31
350
554
  3
ARGON_LAYERP_32
350
735
  3
ARGON_LAYERP_33
350
736
  3
ARGON_LAYERP_34
350
737
  3
ARGON_LAYERP_35
350
738
  3
ARGON_LAYERP_36
350
739
  3
ARGON_LAYERP_37
350
D8D
  3
ARGON_LAYERP_38
350
DA1
  3
ARGON_LAYERP_39
350
DB6
  3
ARGON_LAYERP_4
350
119
  3
ARGON_LAYERP_40
350
E5A
  3
ARGON_LAYERP_41
350
E61
  3
ARGON_LAYERP_42
350
E62
  3
ARGON_LAYERP_43
350
E63
  3
ARGON_LAYERP_44
350
E64
  3
ARGON_LAYERP_45
350
E65
  3
ARGON_LAYERP_46
350
E66
  3
ARGON_LAYERP_47
350
E67
  3
ARGON_LAYERP_48
350
E68
  3
ARGON_LAYERP_49
350
E69
  3
ARGON_LAYERP_5
350
11C
  3
ARGON_LAYERP_50
350
E6A
  3
ARGON_LAYERP_51
350
E6B
  3
ARGON_LAYERP_52
350
E6C
  3
ARGON_LAYERP_53
350
E6D
  3
ARGON_LAYERP_54
350
E6E
  3
ARGON_LAYERP_55
350
E6F
  3
ARGON_LAYERP_56
350
E70
  3
ARGON_LAYERP_57
350
E71
  3
ARGON_LAYERP_58
350
E72
  3
ARGON_LAYERP_59
350
E73
  3
ARGON_LAYERP_6
350
125
  3
ARGON_LAYERP_7
350
126
  3
ARGON_LAYERP_8
350
12F
  3
ARGON_LAYERP_9
350
130
  0
DICTIONARY
  5
DB9
102
{ACAD_REACTORS
330
FB
102
}
330
FB
100
AcDbDictionary
281
     1
1001
ACAD
1000
<All
  0
LAYOUT
  5
22
102
{ACAD_REACTORS
330
1A
102
}
330
1A
100
AcDbPlotSettings
  1

  2
none_device
  4
ANSI_A_(8.50_x_11.00_Inches)
  6

 40
6.35
 41
19.05
 42
6.35
 43
19.05
 44
215.9
 45
279.4
 46
11.11250000000003
 47
0.0000000000000142
 48
0.0
 49
0.0
140
0.0
141
0.0
142
1.0
143
1.263157894736842
 70
 11444
 72
     0
 73
     1
 74
     1
  7
monochrome.ctb
 75
     0
147
0.7916666666666665
148
-702.8076765758875
149
-496.2830551296954
100
AcDbLayout
  1
Model
 70
     1
 71
     0
 10
0.0
 20
0.0
 11
12.0
 21
9.0
 12
0.0
 22
0.0
 32
0.0
 14
0.0
 24
0.0
 34
0.0
 15
0.0
 25
0.0
 35
0.0
146
0.0
 13
0.0
 23
0.0
 33
0.0
 16
1.0
 26
0.0
 36
0.0
 17
0.0
 27
1.0
 37
0.0
 76
     0
330
1F
331
94
  0
LAYOUT
  5
59
102
{ACAD_REACTORS
330
1A
102
}
330
1A
100
AcDbPlotSettings
  1

  2
None
  4

  6

 40
0.0
 41
0.0
 42
0.0
 43
0.0
 44
0.0
 45
0.0
 46
0.0
 47
0.0
 48
0.0
 49
0.0
140
0.0
141
0.0
142
1.0
143
1.0
 70
   688
 72
     0
 73
     0
 74
     5
  7

 75
    16
147
1.0
148
0.0
149
0.0
100
AcDbLayout
  1
Sheet1
 70
     1
 71
     1
 10
0.0
 20
0.0
 11
12.0
 21
9.0
 12
0.0
 22
0.0
 32
0.0
 14
0.0
 24
0.0
 34
0.0
 15
0.0
 25
0.0
 35
0.0
146
0.0
 13
0.0
 23
0.0
 33
0.0
 16
1.0
 26
0.0
 36
0.0
 17
0.0
 27
1.0
 37
0.0
 76
     0
330
58
  0
LAYOUT
  5
5E
102
{ACAD_REACTORS
330
1A
102
}
330
1A
100
AcDbPlotSettings
  1

  2
None
  4

  6

 40
0.0
 41
0.0
 42
0.0
 43
0.0
 44
0.0
 45
0.0
 46
0.0
 47
0.0
 48
0.0
 49
0.0
140
0.0
141
0.0
142
1.0
143
1.0
 70
   688
 72
     0
 73
     0
 74
     5
  7

 75
    16
147
1.0
148
0.0
149
0.0
100
AcDbLayout
  1
Sheet2
 70
     1
 71
     2
 10
0.0
 20
0.0
 11
12.0
 21
9.0
 12
0.0
 22
0.0
 32
0.0
 14
0.0
 24
0.0
 34
0.0
 15
0.0
 25
0.0
 35
0.0
146
0.0
 13
0.0
 23
0.0
 33
0.0
 16
1.0
 26
0.0
 36
0.0
 17
0.0
 27
1.0
 37
0.0
 76
     0
330
5D
  0
MLINESTYLE
  5
18
102
{ACAD_REACTORS
330
17
102
}
330
17
100
AcDbMlineStyle
  2
STANDARD
 70
     0
  3

 62
   256
 51
90.0
 52
90.0
 71
     2
 49
0.5
 62
   256
  6
BYLAYER
 49
-0.5
 62
   256
  6
BYLAYER
  0
ACDBPLACEHOLDER
  5
F
102
{ACAD_REACTORS
330
E
102
}
330
E
  0
SCALE
  5
B7
102
{ACAD_REACTORS
330
B6
102
}
330
B6
100
AcDbScale
 70
     0
300
1:1
140
1.0
141
1.0
290
     1
  0
SCALE
  5
B8
102
{ACAD_REACTORS
330
B6
102
}
330
B6
100
AcDbScale
 70
     0
300
1:2
140
1.0
141
2.0
290
     0
  0
SCALE
  5
B9
102
{ACAD_REACTORS
330
B6
102
}
330
B6
100
AcDbScale
 70
     0
300
1:4
140
1.0
141
4.0
290
     0
  0
SCALE
  5
BA
102
{ACAD_REACTORS
330
B6
102
}
330
B6
100
AcDbScale
 70
     0
300
1:5
140
1.0
141
5.0
290
     0
  0
SCALE
  5
BB
102
{ACAD_REACTORS
330
B6
102
}
330
B6
100
AcDbScale
 70
     0
300
1:8
140
1.0
141
8.0
290
     0
  0
SCALE
  5
BC
102
{ACAD_REACTORS
330
B6
102
}
330
B6
100
AcDbScale
 70
     0
300
1:10
140
1.0
141
10.0
290
     0
  0
SCALE
  5
BD
102
{ACAD_REACTORS
330
B6
102
}
330
B6
100
AcDbScale
 70
     0
300
1:16
140
1.0
141
16.0
290
     0
  0
SCALE
  5
BE
102
{ACAD_REACTORS
330
B6
102
}
330
B6
100
AcDbScale
 70
     0
300
1:20
140
1.0
141
20.0
290
     0
  0
SCALE
  5
BF
102
{ACAD_REACTORS
330
B6
102
}
330
B6
100
AcDbScale
 70
     0
300
1:30
140
1.0
141
30.0
290
     0
  0
SCALE
  5
C0
102
{ACAD_REACTORS
330
B6
102
}
330
B6
100
AcDbScale
 70
     0
300
1:40
140
1.0
141
40.0
290
     0
  0
SCALE
  5
C1
102
{ACAD_REACTORS
330
B6
102
}
330
B6
100
AcDbScale
 70
     0
300
1:50
140
1.0
141
50.0
290
     0
  0
SCALE
  5
C2
102
{ACAD_REACTORS
330
B6
102
}
330
B6
100
AcDbScale
 70
     0
300
1:100
140
1.0
141
100.0
290
     0
  0
SCALE
  5
C3
102
{ACAD_REACTORS
330
B6
102
}
330
B6
100
AcDbScale
 70
     0
300
2:1
140
2.0
141
1.0
290
     0
  0
SCALE
  5
C4
102
{ACAD_REACTORS
330
B6
102
}
330
B6
100
AcDbScale
 70
     0
300
4:1
140
4.0
141
1.0
290
     0
  0
SCALE
  5
C5
102
{ACAD_REACTORS
330
B6
102
}
330
B6
100
AcDbScale
 70
     0
300
8:1
140
8.0
141
1.0
290
     0
  0
SCALE
  5
C6
102
{ACAD_REACTORS
330
B6
102
}
330
B6
100
AcDbScale
 70
     0
300
10:1
140
10.0
141
1.0
290
     0
  0
SCALE
  5
C7
102
{ACAD_REACTORS
330
B6
102
}
330
B6
100
AcDbScale
 70
     0
300
100:1
140
100.0
141
1.0
290
     0
  0
SCALE
  5
C8
102
{ACAD_REACTORS
330
B6
102
}
330
B6
100
AcDbScale
 70
     0
300
1/128" = 1'-0"
140
0.0078125
141
12.0
290
     0
  0
SCALE
  5
C9
102
{ACAD_REACTORS
330
B6
102
}
330
B6
100
AcDbScale
 70
     0
300
1/64" = 1'-0"
140
0.015625
141
12.0
290
     0
  0
SCALE
  5
CA
102
{ACAD_REACTORS
330
B6
102
}
330
B6
100
AcDbScale
 70
     0
300
1/32" = 1'-0"
140
0.03125
141
12.0
290
     0
  0
SCALE
  5
CB
102
{ACAD_REACTORS
330
B6
102
}
330
B6
100
AcDbScale
 70
     0
300
1/16" = 1'-0"
140
0.0625
141
12.0
290
     0
  0
SCALE
  5
CC
102
{ACAD_REACTORS
330
B6
102
}
330
B6
100
AcDbScale
 70
     0
300
3/32" = 1'-0"
140
0.09375
141
12.0
290
     0
  0
SCALE
  5
CD
102
{ACAD_REACTORS
330
B6
102
}
330
B6
100
AcDbScale
 70
     0
300
1/8" = 1'-0"
140
0.125
141
12.0
290
     0
  0
SCALE
  5
CE
102
{ACAD_REACTORS
330
B6
102
}
330
B6
100
AcDbScale
 70
     0
300
3/16" = 1'-0"
140
0.1875
141
12.0
290
     0
  0
SCALE
  5
CF
102
{ACAD_REACTORS
330
B6
102
}
330
B6
100
AcDbScale
 70
     0
300
1/4" = 1'-0"
140
0.25
141
12.0
290
     0
  0
SCALE
  5
D0
102
{ACAD_REACTORS
330
B6
102
}
330
B6
100
AcDbScale
 70
     0
300
3/8" = 1'-0"
140
0.375
141
12.0
290
     0
  0
SCALE
  5
D1
102
{ACAD_REACTORS
330
B6
102
}
330
B6
100
AcDbScale
 70
     0
300
1/2" = 1'-0"
140
0.5
141
12.0
290
     0
  0
SCALE
  5
D2
102
{ACAD_REACTORS
330
B6
102
}
330
B6
100
AcDbScale
 70
     0
300
3/4" = 1'-0"
140
0.75
141
12.0
290
     0
  0
SCALE
  5
D3
102
{ACAD_REACTORS
330
B6
102
}
330
B6
100
AcDbScale
 70
     0
300
1" = 1'-0"
140
1.0
141
12.0
290
     0
  0
SCALE
  5
D4
102
{ACAD_REACTORS
330
B6
102
}
330
B6
100
AcDbScale
 70
     0
300
1-1/2" = 1'-0"
140
1.5
141
12.0
290
     0
  0
SCALE
  5
D5
102
{ACAD_REACTORS
330
B6
102
}
330
B6
100
AcDbScale
 70
     0
300
3" = 1'-0"
140
3.0
141
12.0
290
     0
  0
SCALE
  5
D6
102
{ACAD_REACTORS
330
B6
102
}
330
B6
100
AcDbScale
 70
     0
300
6" = 1'-0"
140
6.0
141
12.0
290
     0
  0
SCALE
  5
D7
102
{ACAD_REACTORS
330
B6
102
}
330
B6
100
AcDbScale
 70
     0
300
1'-0" = 1'-0"
140
12.0
141
12.0
290
     0
  0
DICTIONARYVAR
  5
E5C
102
{ACAD_REACTORS
330
66
102
}
330
66
100
DictionaryVariables
280
     0
  1
1:1
  0
DICTIONARYVAR
  5
67
102
{ACAD_REACTORS
330
66
102
}
330
66
100
DictionaryVariables
280
     0
  1
2
  0
DICTIONARYVAR
  5
6B
102
{ACAD_REACTORS
330
66
102
}
330
66
100
DictionaryVariables
280
     0
  1
1
  0
XRECORD
  5
FD
102
{ACAD_REACTORS
330
FC
102
}
330
FC
100
AcDbXrecord
280
     1
 91
     1023
301

290
     0
302
0
330
10
 90
        8
 62
     7
370
    -3
331
16
  1
Color_7
  0
XRECORD
  5
131
102
{ACAD_REACTORS
330
FC
102
}
330
FC
100
AcDbXrecord
280
     1
 91
     1023
301

290
     0
302
TOP_COPPER
330
10
 90
       10
 62
     7
370
    -3
331
16
  1
Color_7
330
FE
 90
        8
 62
     1
370
    -3
331
16
  1
Color_1
330
100
 90
        8
 62
     3
370
    -3
331
16
  1
Color_3
330
101
 90
        8
 62
     2
370
    -3
331
16
  1
Color_2
330
102
 90
        8
 62
     4
370
    -3
331
16
  1
Color_4
  0
XRECORD
  5
132
102
{ACAD_REACTORS
330
FC
102
}
330
FC
100
AcDbXrecord
280
     1
 91
     1023
301

290
     0
302
TOP_COPPER
330
10
 90
        8
 62
     7
370
    -3
331
16
  1
Color_7
330
FE
 90
        8
 62
     1
370
    -3
331
16
  1
Color_1
330
100
 90
        8
 62
     3
370
    -3
331
16
  1
Color_3
330
101
 90
        8
 62
     2
370
    -3
331
16
  1
Color_2
330
102
 90
        8
 62
     4
370
    -3
331
16
  1
Color_4
  0
XRECORD
  5
291
102
{ACAD_REACTORS
330
FC
102
}
330
FC
100
AcDbXrecord
280
     1
 91
     1023
301

290
     0
302
TOP_COPPER
330
10
 90
       10
 62
     7
370
    -3
331
16
  1
Color_7
330
FE
 90
        8
 62
     1
370
    -3
331
16
  1
Color_1
330
100
 90
        8
 62
     3
370
    -3
331
16
  1
Color_3
330
101
 90
        8
 62
     2
370
    -3
331
16
  1
Color_2
330
102
 90
        8
 62
     4
370
    -3
331
16
  1
Color_4
  0
XRECORD
  5
292
102
{ACAD_REACTORS
330
FC
102
}
330
FC
100
AcDbXrecord
280
     1
 91
     1023
301

290
     0
302
TOP_COPPER
330
10
 90
       10
 62
     7
370
    -3
331
16
  1
Color_7
330
FE
 90
        8
 62
     1
370
    -3
331
16
  1
Color_1
330
100
 90
        8
 62
     3
370
    -3
331
16
  1
Color_3
330
101
 90
        8
 62
     2
370
    -3
331
16
  1
Color_2
330
102
 90
       10
 62
     4
370
    -3
331
16
  1
Color_4
  0
XRECORD
  5
295
102
{ACAD_REACTORS
330
FC
102
}
330
FC
100
AcDbXrecord
280
     1
 91
     1023
301

290
     0
302
TOP_COPPER
330
10
 90
       10
 62
     7
370
    -3
331
16
  1
Color_7
330
FE
 90
        8
 62
     1
370
    -3
331
16
  1
Color_1
330
100
 90
        8
 62
     3
370
    -3
331
16
  1
Color_3
330
101
 90
       10
 62
     2
370
    -3
331
16
  1
Color_2
330
102
 90
       10
 62
     4
370
    -3
331
16
  1
Color_4
  0
XRECORD
  5
296
102
{ACAD_REACTORS
330
FC
102
}
330
FC
100
AcDbXrecord
280
     1
 91
     1023
301

290
     0
302
TOP_COPPER
330
10
 90
       10
 62
     7
370
    -3
331
16
  1
Color_7
330
FE
 90
        8
 62
     1
370
    -3
331
16
  1
Color_1
330
100
 90
        8
 62
     3
370
    -3
331
16
  1
Color_3
330
101
 90
       10
 62
     2
370
    -3
331
16
  1
Color_2
330
102
 90
       10
 62
     4
370
    -3
331
16
  1
Color_4
  0
XRECORD
  5
297
102
{ACAD_REACTORS
330
FC
102
}
330
FC
100
AcDbXrecord
280
     1
 91
     1023
301

290
     0
302
TOP_COPPER
330
10
 90
       10
 62
     7
370
    -3
331
16
  1
Color_7
330
FE
 90
        8
 62
     1
370
    -3
331
16
  1
Color_1
330
100
 90
        8
 62
     3
370
    -3
331
16
  1
Color_3
330
101
 90
       10
 62
     2
370
    -3
331
16
  1
Color_2
330
102
 90
       10
 62
     4
370
    -3
331
16
  1
Color_4
  0
XRECORD
  5
298
102
{ACAD_REACTORS
330
FC
102
}
330
FC
100
AcDbXrecord
280
     1
 91
     1023
301

290
     0
302
TOP_COPPER
330
10
 90
       10
 62
     7
370
    -3
331
16
  1
Color_7
330
FE
 90
        8
 62
     1
370
    -3
331
16
  1
Color_1
330
100
 90
       10
 62
     3
370
    -3
331
16
  1
Color_3
330
101
 90
       10
 62
     2
370
    -3
331
16
  1
Color_2
330
102
 90
       10
 62
     4
370
    -3
331
16
  1
Color_4
  0
XRECORD
  5
299
102
{ACAD_REACTORS
330
FC
102
}
330
FC
100
AcDbXrecord
280
     1
 91
     1023
301

290
     0
302
TOP_COPPER
330
10
 90
       10
 62
     7
370
    -3
331
16
  1
Color_7
330
FE
 90
        8
 62
     1
370
    -3
331
16
  1
Color_1
330
100
 90
        8
 62
     3
370
    -3
331
16
  1
Color_3
330
101
 90
       10
 62
     2
370
    -3
331
16
  1
Color_2
330
102
 90
       10
 62
     4
370
    -3
331
16
  1
Color_4
  0
XRECORD
  5
29A
102
{ACAD_REACTORS
330
FC
102
}
330
FC
100
AcDbXrecord
280
     1
 91
     1023
301

290
     0
302
TOP_COPPER
330
10
 90
       10
 62
     7
370
    -3
331
16
  1
Color_7
330
FE
 90
        8
 62
     1
370
    -3
331
16
  1
Color_1
330
100
 90
       10
 62
     3
370
    -3
331
16
  1
Color_3
330
101
 90
       10
 62
     2
370
    -3
331
16
  1
Color_2
330
102
 90
       10
 62
     4
370
    -3
331
16
  1
Color_4
  0
XRECORD
  5
105
102
{ACAD_REACTORS
330
FC
102
}
330
FC
100
AcDbXrecord
280
     1
 91
     1023
301

290
     0
302
0
330
10
 90
        8
 62
     7
370
    -3
331
16
  1
Color_7
330
FE
 90
        8
 62
     1
370
    -3
331
16
  1
Color_1
330
100
 90
        8
 62
     3
370
    -3
331
16
  1
Color_3
330
101
 90
        8
 62
     2
370
    -3
331
16
  1
Color_2
330
102
 90
        8
 62
     4
370
    -3
331
16
  1
Color_4
  0
XRECORD
  5
29B
102
{ACAD_REACTORS
330
FC
102
}
330
FC
100
AcDbXrecord
280
     1
 91
     1023
301

290
     0
302
TOP_COPPER
330
10
 90
       10
 62
     7
370
    -3
331
16
  1
Color_7
330
FE
 90
        8
 62
     1
370
    -3
331
16
  1
Color_1
330
100
 90
        8
 62
     3
370
    -3
331
16
  1
Color_3
330
101
 90
       10
 62
     2
370
    -3
331
16
  1
Color_2
330
102
 90
       10
 62
     4
370
    -3
331
16
  1
Color_4
  0
XRECORD
  5
29C
102
{ACAD_REACTORS
330
FC
102
}
330
FC
100
AcDbXrecord
280
     1
 91
     1023
301

290
     0
302
TOP_COPPER
330
10
 90
       10
 62
     7
370
    -3
331
16
  1
Color_7
330
FE
 90
        8
 62
     1
370
    -3
331
16
  1
Color_1
330
100
 90
       10
 62
     3
370
    -3
331
16
  1
Color_3
330
101
 90
       10
 62
     2
370
    -3
331
16
  1
Color_2
330
102
 90
       10
 62
     4
370
    -3
331
16
  1
Color_4
  0
XRECORD
  5
29D
102
{ACAD_REACTORS
330
FC
102
}
330
FC
100
AcDbXrecord
280
     1
 91
     1023
301

290
     0
302
TOP_COPPER
330
10
 90
       10
 62
     7
370
    -3
331
16
  1
Color_7
330
FE
 90
        8
 62
     1
370
    -3
331
16
  1
Color_1
330
100
 90
        8
 62
     3
370
    -3
331
16
  1
Color_3
330
101
 90
       10
 62
     2
370
    -3
331
16
  1
Color_2
330
102
 90
       10
 62
     4
370
    -3
331
16
  1
Color_4
  0
XRECORD
  5
29E
102
{ACAD_REACTORS
330
FC
102
}
330
FC
100
AcDbXrecord
280
     1
 91
     1023
301

290
     0
302
TOP_COPPER
330
10
 90
       10
 62
     7
370
    -3
331
16
  1
Color_7
330
FE
 90
        8
 62
     1
370
    -3
331
16
  1
Color_1
330
100
 90
       10
 62
     3
370
    -3
331
16
  1
Color_3
330
101
 90
       10
 62
     2
370
    -3
331
16
  1
Color_2
330
102
 90
       10
 62
     4
370
    -3
331
16
  1
Color_4
  0
XRECORD
  5
29F
102
{ACAD_REACTORS
330
FC
102
}
330
FC
100
AcDbXrecord
280
     1
 91
     1023
301

290
     0
302
TOP_COPPER
330
10
 90
       10
 62
     7
370
    -3
331
16
  1
Color_7
330
FE
 90
        8
 62
     1
370
    -3
331
16
  1
Color_1
330
100
 90
        8
 62
     3
370
    -3
331
16
  1
Color_3
330
101
 90
       10
 62
     2
370
    -3
331
16
  1
Color_2
330
102
 90
       10
 62
     4
370
    -3
331
16
  1
Color_4
  0
XRECORD
  5
2A0
102
{ACAD_REACTORS
330
FC
102
}
330
FC
100
AcDbXrecord
280
     1
 91
     1023
301

290
     0
302
TOP_COPPER
330
10
 90
       10
 62
     7
370
    -3
331
16
  1
Color_7
330
FE
 90
        8
 62
     1
370
    -3
331
16
  1
Color_1
330
100
 90
       10
 62
     3
370
    -3
331
16
  1
Color_3
330
101
 90
       10
 62
     2
370
    -3
331
16
  1
Color_2
330
102
 90
       10
 62
     4
370
    -3
331
16
  1
Color_4
  0
XRECORD
  5
2A1
102
{ACAD_REACTORS
330
FC
102
}
330
FC
100
AcDbXrecord
280
     1
 91
     1023
301

290
     0
302
TOP_COPPER
330
10
 90
       10
 62
     7
370
    -3
331
16
  1
Color_7
330
FE
 90
        8
 62
     1
370
    -3
331
16
  1
Color_1
330
100
 90
        8
 62
     3
370
    -3
331
16
  1
Color_3
330
101
 90
       10
 62
     2
370
    -3
331
16
  1
Color_2
330
102
 90
       10
 62
     4
370
    -3
331
16
  1
Color_4
  0
XRECORD
  5
2A2
102
{ACAD_REACTORS
330
FC
102
}
330
FC
100
AcDbXrecord
280
     1
 91
     1023
301

290
     0
302
TOP_COPPER
330
10
 90
       10
 62
     7
370
    -3
331
16
  1
Color_7
330
FE
 90
        8
 62
     1
370
    -3
331
16
  1
Color_1
330
100
 90
       10
 62
     3
370
    -3
331
16
  1
Color_3
330
101
 90
       10
 62
     2
370
    -3
331
16
  1
Color_2
330
102
 90
       10
 62
     4
370
    -3
331
16
  1
Color_4
  0
XRECORD
  5
2B7
102
{ACAD_REACTORS
330
FC
102
}
330
FC
100
AcDbXrecord
280
     1
 91
     1023
301

290
     0
302
TOP_COPPER
330
10
 90
       10
 62
     7
370
    -3
331
16
  1
Color_7
330
FE
 90
        8
 62
     1
370
    -3
331
16
  1
Color_1
330
100
 90
        8
 62
     3
370
    -3
331
16
  1
Color_3
330
101
 90
       10
 62
     2
370
    -3
331
16
  1
Color_2
330
102
 90
       10
 62
     4
370
    -3
331
16
  1
Color_4
  0
XRECORD
  5
2B8
102
{ACAD_REACTORS
330
FC
102
}
330
FC
100
AcDbXrecord
280
     1
 91
     1023
301

290
     0
302
TOP_COPPER
330
10
 90
       10
 62
     7
370
    -3
331
16
  1
Color_7
330
FE
 90
        8
 62
     1
370
    -3
331
16
  1
Color_1
330
100
 90
        8
 62
     3
370
    -3
331
16
  1
Color_3
330
101
 90
       10
 62
     2
370
    -3
331
16
  1
Color_2
330
102
 90
        8
 62
     4
370
    -3
331
16
  1
Color_4
  0
XRECORD
  5
10D
102
{ACAD_REACTORS
330
FC
102
}
330
FC
100
AcDbXrecord
280
     1
 91
     1023
301

290
     0
302
TOP_COPPER
330
10
 90
        8
 62
     7
370
    -3
331
16
  1
Color_7
330
FE
 90
        8
 62
     1
370
    -3
331
16
  1
Color_1
330
100
 90
        8
 62
     3
370
    -3
331
16
  1
Color_3
330
101
 90
        8
 62
     2
370
    -3
331
16
  1
Color_2
330
102
 90
        8
 62
     4
370
    -3
331
16
  1
Color_4
  0
XRECORD
  5
31E
102
{ACAD_REACTORS
330
FC
102
}
330
FC
100
AcDbXrecord
280
     1
 91
     1023
301

290
     0
302
TOP_COPPER
330
10
 90
       10
 62
     7
370
    -3
331
16
  1
Color_7
330
FE
 90
        8
 62
     1
370
    -3
331
16
  1
Color_1
330
100
 90
        8
 62
     3
370
    -3
331
16
  1
Color_3
330
101
 90
        8
 62
     2
370
    -3
331
16
  1
Color_2
330
102
 90
        8
 62
     4
370
    -3
331
16
  1
Color_4
  0
XRECORD
  5
554
102
{ACAD_REACTORS
330
FC
102
}
330
FC
100
AcDbXrecord
280
     1
 91
     1023
301

290
     0
302
BOTTOM_COPPER
330
10
 90
       10
 62
     7
370
    -3
331
16
  1
Color_7
330
FE
 90
        8
 62
     1
370
    -3
331
16
  1
Color_1
330
100
 90
        8
 62
     3
370
    -3
331
16
  1
Color_3
330
101
 90
        8
 62
     2
370
    -3
331
16
  1
Color_2
330
102
 90
        8
 62
     4
370
    -3
331
16
  1
Color_4
  0
XRECORD
  5
735
102
{ACAD_REACTORS
330
FC
102
}
330
FC
100
AcDbXrecord
280
     1
 91
     1023
301

290
     0
302
BOTTOM_COPPER
330
10
 90
       10
 62
     7
370
    -3
331
16
  1
Color_7
330
FE
 90
       10
 62
     1
370
    -3
331
16
  1
Color_1
330
100
 90
        8
 62
     3
370
    -3
331
16
  1
Color_3
330
101
 90
        8
 62
     2
370
    -3
331
16
  1
Color_2
330
102
 90
        8
 62
     4
370
    -3
331
16
  1
Color_4
  0
XRECORD
  5
736
102
{ACAD_REACTORS
330
FC
102
}
330
FC
100
AcDbXrecord
280
     1
 91
     1023
301

290
     0
302
BOTTOM_COPPER
330
10
 90
       10
 62
     7
370
    -3
331
16
  1
Color_7
330
FE
 90
        8
 62
     1
370
    -3
331
16
  1
Color_1
330
100
 90
        8
 62
     3
370
    -3
331
16
  1
Color_3
330
101
 90
        8
 62
     2
370
    -3
331
16
  1
Color_2
330
102
 90
        8
 62
     4
370
    -3
331
16
  1
Color_4
  0
XRECORD
  5
737
102
{ACAD_REACTORS
330
FC
102
}
330
FC
100
AcDbXrecord
280
     1
 91
     1023
301

290
     0
302
BOTTOM_COPPER
330
10
 90
       10
 62
     7
370
    -3
331
16
  1
Color_7
330
FE
 90
        8
 62
     1
370
    -3
331
16
  1
Color_1
330
100
 90
        8
 62
     3
370
    -3
331
16
  1
Color_3
330
101
 90
        8
 62
     2
370
    -3
331
16
  1
Color_2
330
102
 90
        8
 62
     4
370
    -3
331
16
  1
Color_4
  0
XRECORD
  5
738
102
{ACAD_REACTORS
330
FC
102
}
330
FC
100
AcDbXrecord
280
     1
 91
     1023
301

290
     0
302
BOTTOM_COPPER
330
10
 90
       10
 62
     7
370
    -3
331
16
  1
Color_7
330
FE
 90
        8
 62
     1
370
    -3
331
16
  1
Color_1
330
100
 90
        8
 62
     3
370
    -3
331
16
  1
Color_3
330
101
 90
        8
 62
     2
370
    -3
331
16
  1
Color_2
330
102
 90
        8
 62
     4
370
    -3
331
16
  1
Color_4
  0
XRECORD
  5
739
102
{ACAD_REACTORS
330
FC
102
}
330
FC
100
AcDbXrecord
280
     1
 91
     1023
301

290
     0
302
TOP_COPPER
330
10
 90
       10
 62
     7
370
    -3
331
16
  1
Color_7
330
FE
 90
        8
 62
     1
370
    -3
331
16
  1
Color_1
330
100
 90
        8
 62
     3
370
    -3
331
16
  1
Color_3
330
101
 90
        8
 62
     2
370
    -3
331
16
  1
Color_2
330
102
 90
        8
 62
     4
370
    -3
331
16
  1
Color_4
  0
XRECORD
  5
D8D
102
{ACAD_REACTORS
330
FC
102
}
330
FC
100
AcDbXrecord
280
     1
 91
     1023
301

290
     0
302
TOP_COPPER
330
10
 90
       10
 62
     7
370
    -3
331
16
  1
Color_7
330
FE
 90
        8
 62
     1
370
    -3
331
16
  1
Color_1
330
100
 90
       10
 62
     3
370
    -3
331
16
  1
Color_3
330
101
 90
        8
 62
     2
370
    -3
331
16
  1
Color_2
330
102
 90
        8
 62
     4
370
    -3
331
16
  1
Color_4
  0
XRECORD
  5
DA1
102
{ACAD_REACTORS
330
FC
102
}
330
FC
100
AcDbXrecord
280
     1
 91
     1023
301

290
     0
302
TOP_COPPER
330
10
 90
       10
 62
     7
370
    -3
331
16
  1
Color_7
330
FE
 90
        8
 62
     1
370
    -3
331
16
  1
Color_1
330
100
 90
        8
 62
     3
370
    -3
331
16
  1
Color_3
330
101
 90
        8
 62
     2
370
    -3
331
16
  1
Color_2
330
102
 90
        8
 62
     4
370
    -3
331
16
  1
Color_4
  0
XRECORD
  5
DB6
102
{ACAD_REACTORS
330
FC
102
}
330
FC
100
AcDbXrecord
280
     1
 91
     1023
301

290
     0
302
DRILL
330
10
 90
       10
 62
     7
370
    -3
331
16
  1
Color_7
330
FE
 90
        8
 62
     1
370
    -3
331
16
  1
Color_1
330
100
 90
        8
 62
     3
370
    -3
331
16
  1
Color_3
330
101
 90
        8
 62
     2
370
    -3
331
16
  1
Color_2
330
102
 90
        8
 62
     4
370
    -3
331
16
  1
Color_4
  0
XRECORD
  5
119
102
{ACAD_REACTORS
330
FC
102
}
330
FC
100
AcDbXrecord
280
     1
 91
     1023
301

290
     0
302
TOP_COPPER
330
10
 90
       10
 62
     7
370
    -3
331
16
  1
Color_7
330
FE
 90
        8
 62
     1
370
    -3
331
16
  1
Color_1
330
100
 90
        8
 62
     3
370
    -3
331
16
  1
Color_3
330
101
 90
        8
 62
     2
370
    -3
331
16
  1
Color_2
330
102
 90
        8
 62
     4
370
    -3
331
16
  1
Color_4
  0
XRECORD
  5
E5A
102
{ACAD_REACTORS
330
FC
102
}
330
FC
100
AcDbXrecord
280
     1
 91
     1023
301

290
     0
302
DRILL
330
10
 90
       10
 62
     7
370
    -3
331
16
  1
Color_7
330
FE
 90
        8
 62
     1
370
    -3
331
16
  1
Color_1
330
100
 90
        8
 62
     3
370
    -3
331
16
  1
Color_3
330
101
 90
        8
 62
     2
370
    -3
331
16
  1
Color_2
330
102
 90
        8
 62
     4
370
    -3
331
16
  1
Color_4
330
DB7
 90
        8
 62
     6
370
    -3
331
16
  1
Color_6
330
DB8
 90
        8
 62
     5
370
    -3
331
16
  1
Color_5
  0
XRECORD
  5
E61
102
{ACAD_REACTORS
330
FC
102
}
330
FC
100
AcDbXrecord
280
     1
 91
     1023
301

290
     0
302
DRILL
330
10
 90
        8
 62
     7
370
    -3
331
16
  1
Color_7
330
FE
 90
        8
 62
     1
370
    -3
331
16
  1
Color_1
330
100
 90
        8
 62
     3
370
    -3
331
16
  1
Color_3
330
101
 90
        8
 62
     2
370
    -3
331
16
  1
Color_2
330
102
 90
        8
 62
     4
370
    -3
331
16
  1
Color_4
330
DB7
 90
        8
 62
     6
370
    -3
331
16
  1
Color_6
330
DB8
 90
        8
 62
     5
370
    -3
331
16
  1
Color_5
  0
XRECORD
  5
E62
102
{ACAD_REACTORS
330
FC
102
}
330
FC
100
AcDbXrecord
280
     1
 91
     1023
301

290
     0
302
DRILL
330
10
 90
        8
 62
     7
370
    -3
331
16
  1
Color_7
330
FE
 90
        8
 62
     1
370
    -3
331
16
  1
Color_1
330
100
 90
       10
 62
     3
370
    -3
331
16
  1
Color_3
330
101
 90
        8
 62
     2
370
    -3
331
16
  1
Color_2
330
102
 90
        8
 62
     4
370
    -3
331
16
  1
Color_4
330
DB7
 90
        8
 62
     6
370
    -3
331
16
  1
Color_6
330
DB8
 90
        8
 62
     5
370
    -3
331
16
  1
Color_5
  0
XRECORD
  5
E63
102
{ACAD_REACTORS
330
FC
102
}
330
FC
100
AcDbXrecord
280
     1
 91
     1023
301

290
     0
302
DRILL
330
10
 90
        8
 62
     7
370
    -3
331
16
  1
Color_7
330
FE
 90
        8
 62
     1
370
    -3
331
16
  1
Color_1
330
100
 90
       10
 62
     3
370
    -3
331
16
  1
Color_3
330
101
 90
        8
 62
     2
370
    -3
331
16
  1
Color_2
330
102
 90
        8
 62
     4
370
    -3
331
16
  1
Color_4
330
DB7
 90
        8
 62
     6
370
    -3
331
16
  1
Color_6
330
DB8
 90
       10
 62
     5
370
    -3
331
16
  1
Color_5
  0
XRECORD
  5
E64
102
{ACAD_REACTORS
330
FC
102
}
330
FC
100
AcDbXrecord
280
     1
 91
     1023
301

290
     0
302
DRILL
330
10
 90
        8
 62
     7
370
    -3
331
16
  1
Color_7
330
FE
 90
        8
 62
     1
370
    -3
331
16
  1
Color_1
330
100
 90
       10
 62
     3
370
    -3
331
16
  1
Color_3
330
101
 90
        8
 62
     2
370
    -3
331
16
  1
Color_2
330
102
 90
        8
 62
     4
370
    -3
331
16
  1
Color_4
330
DB7
 90
        8
 62
     6
370
    -3
331
16
  1
Color_6
330
DB8
 90
        8
 62
     5
370
    -3
331
16
  1
Color_5
  0
XRECORD
  5
E65
102
{ACAD_REACTORS
330
FC
102
}
330
FC
100
AcDbXrecord
280
     1
 91
     1023
301

290
     0
302
DRILL
330
10
 90
        8
 62
     7
370
    -3
331
16
  1
Color_7
330
FE
 90
        8
 62
     1
370
    -3
331
16
  1
Color_1
330
100
 90
       10
 62
     3
370
    -3
331
16
  1
Color_3
330
101
 90
        8
 62
     2
370
    -3
331
16
  1
Color_2
330
102
 90
        8
 62
     4
370
    -3
331
16
  1
Color_4
330
DB7
 90
       10
 62
     6
370
    -3
331
16
  1
Color_6
330
DB8
 90
        8
 62
     5
370
    -3
331
16
  1
Color_5
  0
XRECORD
  5
E66
102
{ACAD_REACTORS
330
FC
102
}
330
FC
100
AcDbXrecord
280
     1
 91
     1023
301

290
     0
302
DRILL
330
10
 90
        8
 62
     7
370
    -3
331
16
  1
Color_7
330
FE
 90
       10
 62
     1
370
    -3
331
16
  1
Color_1
330
100
 90
       10
 62
     3
370
    -3
331
16
  1
Color_3
330
101
 90
        8
 62
     2
370
    -3
331
16
  1
Color_2
330
102
 90
        8
 62
     4
370
    -3
331
16
  1
Color_4
330
DB7
 90
       10
 62
     6
370
    -3
331
16
  1
Color_6
330
DB8
 90
        8
 62
     5
370
    -3
331
16
  1
Color_5
  0
XRECORD
  5
E67
102
{ACAD_REACTORS
330
FC
102
}
330
FC
100
AcDbXrecord
280
     1
 91
     1023
301

290
     0
302
DRILL
330
10
 90
        8
 62
     7
370
    -3
331
16
  1
Color_7
330
FE
 90
       10
 62
     1
370
    -3
331
16
  1
Color_1
330
100
 90
       10
 62
     3
370
    -3
331
16
  1
Color_3
330
101
 90
        8
 62
     2
370
    -3
331
16
  1
Color_2
330
102
 90
       10
 62
     4
370
    -3
331
16
  1
Color_4
330
DB7
 90
       10
 62
     6
370
    -3
331
16
  1
Color_6
330
DB8
 90
        8
 62
     5
370
    -3
331
16
  1
Color_5
  0
XRECORD
  5
E68
102
{ACAD_REACTORS
330
FC
102
}
330
FC
100
AcDbXrecord
280
     1
 91
     1023
301

290
     0
302
DRILL
330
10
 90
        8
 62
     7
370
    -3
331
16
  1
Color_7
330
FE
 90
       10
 62
     1
370
    -3
331
16
  1
Color_1
330
100
 90
       10
 62
     3
370
    -3
331
16
  1
Color_3
330
101
 90
        8
 62
     2
370
    -3
331
16
  1
Color_2
330
102
 90
       10
 62
     4
370
    -3
331
16
  1
Color_4
330
DB7
 90
       10
 62
     6
370
    -3
331
16
  1
Color_6
330
DB8
 90
        8
 62
     5
370
    -3
331
16
  1
Color_5
  0
XRECORD
  5
E69
102
{ACAD_REACTORS
330
FC
102
}
330
FC
100
AcDbXrecord
280
     1
 91
     1023
301

290
     0
302
DRILL
330
10
 90
        8
 62
     7
370
    -3
331
16
  1
Color_7
330
FE
 90
       10
 62
     1
370
    -3
331
16
  1
Color_1
330
100
 90
       10
 62
     3
370
    -3
331
16
  1
Color_3
330
101
 90
        8
 62
     2
370
    -3
331
16
  1
Color_2
330
102
 90
       10
 62
     4
370
    -3
331
16
  1
Color_4
330
DB7
 90
       10
 62
     6
370
    -3
331
16
  1
Color_6
330
DB8
 90
        8
 62
     5
370
    -3
331
16
  1
Color_5
  0
XRECORD
  5
11C
102
{ACAD_REACTORS
330
FC
102
}
330
FC
100
AcDbXrecord
280
     1
 91
     1023
301

290
     0
302
TOP_COPPER
330
10
 90
        8
 62
     7
370
    -3
331
16
  1
Color_7
330
FE
 90
        8
 62
     1
370
    -3
331
16
  1
Color_1
330
100
 90
        8
 62
     3
370
    -3
331
16
  1
Color_3
330
101
 90
        8
 62
     2
370
    -3
331
16
  1
Color_2
330
102
 90
        8
 62
     4
370
    -3
331
16
  1
Color_4
  0
XRECORD
  5
E6A
102
{ACAD_REACTORS
330
FC
102
}
330
FC
100
AcDbXrecord
280
     1
 91
     1023
301

290
     0
302
DRILL
330
10
 90
        8
 62
     7
370
    -3
331
16
  1
Color_7
330
FE
 90
       10
 62
     1
370
    -3
331
16
  1
Color_1
330
100
 90
       10
 62
     3
370
    -3
331
16
  1
Color_3
330
101
 90
        8
 62
     2
370
    -3
331
16
  1
Color_2
330
102
 90
       10
 62
     4
370
    -3
331
16
  1
Color_4
330
DB7
 90
       10
 62
     6
370
    -3
331
16
  1
Color_6
330
DB8
 90
        8
 62
     5
370
    -3
331
16
  1
Color_5
  0
XRECORD
  5
E6B
102
{ACAD_REACTORS
330
FC
102
}
330
FC
100
AcDbXrecord
280
     1
 91
     1023
301

290
     0
302
DRILL
330
10
 90
        8
 62
     7
370
    -3
331
16
  1
Color_7
330
FE
 90
       10
 62
     1
370
    -3
331
16
  1
Color_1
330
100
 90
       10
 62
     3
370
    -3
331
16
  1
Color_3
330
101
 90
        8
 62
     2
370
    -3
331
16
  1
Color_2
330
102
 90
       10
 62
     4
370
    -3
331
16
  1
Color_4
330
DB7
 90
       10
 62
     6
370
    -3
331
16
  1
Color_6
330
DB8
 90
       10
 62
     5
370
    -3
331
16
  1
Color_5
  0
XRECORD
  5
E6C
102
{ACAD_REACTORS
330
FC
102
}
330
FC
100
AcDbXrecord
280
     1
 91
     1023
301

290
     0
302
DRILL
330
10
 90
        8
 62
     7
370
    -3
331
16
  1
Color_7
330
FE
 90
       10
 62
     1
370
    -3
331
16
  1
Color_1
330
100
 90
       10
 62
     3
370
    -3
331
16
  1
Color_3
330
101
 90
        8
 62
     2
370
    -3
331
16
  1
Color_2
330
102
 90
       10
 62
     4
370
    -3
331
16
  1
Color_4
330
DB7
 90
       10
 62
     6
370
    -3
331
16
  1
Color_6
330
DB8
 90
        8
 62
     5
370
    -3
331
16
  1
Color_5
  0
XRECORD
  5
E6D
102
{ACAD_REACTORS
330
FC
102
}
330
FC
100
AcDbXrecord
280
     1
 91
     1023
301

290
     0
302
0
330
10
 90
        8
 62
     7
370
    -3
331
16
  1
Color_7
330
FE
 90
       10
 62
     1
370
    -3
331
16
  1
Color_1
330
100
 90
       10
 62
     3
370
    -3
331
16
  1
Color_3
330
101
 90
        8
 62
     2
370
    -3
331
16
  1
Color_2
330
102
 90
       10
 62
     4
370
    -3
331
16
  1
Color_4
330
DB7
 90
       10
 62
     6
370
    -3
331
16
  1
Color_6
330
DB8
 90
        8
 62
     5
370
    -3
331
16
  1
Color_5
  0
XRECORD
  5
E6E
102
{ACAD_REACTORS
330
FC
102
}
330
FC
100
AcDbXrecord
280
     1
 91
     1023
301

290
     0
302
0
330
10
 90
        8
 62
     7
370
    -3
331
16
  1
Color_7
330
FE
 90
       10
 62
     1
370
    -3
331
16
  1
Color_1
330
100
 90
        8
 62
     3
370
    -3
331
16
  1
Color_3
330
101
 90
        8
 62
     2
370
    -3
331
16
  1
Color_2
330
102
 90
       10
 62
     4
370
    -3
331
16
  1
Color_4
330
DB7
 90
       10
 62
     6
370
    -3
331
16
  1
Color_6
330
DB8
 90
        8
 62
     5
370
    -3
331
16
  1
Color_5
  0
XRECORD
  5
E6F
102
{ACAD_REACTORS
330
FC
102
}
330
FC
100
AcDbXrecord
280
     1
 91
     1023
301

290
     0
302
0
330
10
 90
        8
 62
     7
370
    -3
331
16
  1
Color_7
330
FE
 90
       10
 62
     1
370
    -3
331
16
  1
Color_1
330
100
 90
        8
 62
     3
370
    -3
331
16
  1
Color_3
330
101
 90
       10
 62
     2
370
    -3
331
16
  1
Color_2
330
102
 90
       10
 62
     4
370
    -3
331
16
  1
Color_4
330
DB7
 90
       10
 62
     6
370
    -3
331
16
  1
Color_6
330
DB8
 90
        8
 62
     5
370
    -3
331
16
  1
Color_5
  0
XRECORD
  5
E70
102
{ACAD_REACTORS
330
FC
102
}
330
FC
100
AcDbXrecord
280
     1
 91
     1023
301

290
     0
302
0
330
10
 90
        8
 62
     7
370
    -3
331
16
  1
Color_7
330
FE
 90
       10
 62
     1
370
    -3
331
16
  1
Color_1
330
100
 90
        8
 62
     3
370
    -3
331
16
  1
Color_3
330
101
 90
        8
 62
     2
370
    -3
331
16
  1
Color_2
330
102
 90
       10
 62
     4
370
    -3
331
16
  1
Color_4
330
DB7
 90
       10
 62
     6
370
    -3
331
16
  1
Color_6
330
DB8
 90
        8
 62
     5
370
    -3
331
16
  1
Color_5
  0
XRECORD
  5
E71
102
{ACAD_REACTORS
330
FC
102
}
330
FC
100
AcDbXrecord
280
     1
 91
     1023
301

290
     0
302
0
330
10
 90
        8
 62
     7
370
    -3
331
16
  1
Color_7
330
FE
 90
       10
 62
     1
370
    -3
331
16
  1
Color_1
330
100
 90
        8
 62
     3
370
    -3
331
16
  1
Color_3
330
101
 90
        8
 62
     2
370
    -3
331
16
  1
Color_2
330
102
 90
        8
 62
     4
370
    -3
331
16
  1
Color_4
330
DB7
 90
       10
 62
     6
370
    -3
331
16
  1
Color_6
330
DB8
 90
        8
 62
     5
370
    -3
331
16
  1
Color_5
  0
XRECORD
  5
E72
102
{ACAD_REACTORS
330
FC
102
}
330
FC
100
AcDbXrecord
280
     1
 91
     1023
301

290
     0
302
0
330
10
 90
        8
 62
     7
370
    -3
331
16
  1
Color_7
330
FE
 90
        8
 62
     1
370
    -3
331
16
  1
Color_1
330
100
 90
        8
 62
     3
370
    -3
331
16
  1
Color_3
330
101
 90
        8
 62
     2
370
    -3
331
16
  1
Color_2
330
102
 90
        8
 62
     4
370
    -3
331
16
  1
Color_4
330
DB7
 90
       10
 62
     6
370
    -3
331
16
  1
Color_6
330
DB8
 90
        8
 62
     5
370
    -3
331
16
  1
Color_5
  0
XRECORD
  5
E73
102
{ACAD_REACTORS
330
FC
102
}
330
FC
100
AcDbXrecord
280
     1
 91
     1023
301

290
     0
302
TOP_COPPER
330
10
 90
        8
 62
     7
370
    -3
331
16
  1
Color_7
330
FE
 90
        8
 62
     1
370
    -3
331
16
  1
Color_1
330
100
 90
        8
 62
     3
370
    -3
331
16
  1
Color_3
330
101
 90
        8
 62
     2
370
    -3
331
16
  1
Color_2
330
102
 90
        8
 62
     4
370
    -3
331
16
  1
Color_4
330
DB7
 90
       10
 62
     6
370
    -3
331
16
  1
Color_6
330
DB8
 90
        8
 62
     5
370
    -3
331
16
  1
Color_5
  0
XRECORD
  5
125
102
{ACAD_REACTORS
330
FC
102
}
330
FC
100
AcDbXrecord
280
     1
 91
     1023
301

290
     0
302
TOP_COPPER
330
10
 90
       10
 62
     7
370
    -3
331
16
  1
Color_7
330
FE
 90
        8
 62
     1
370
    -3
331
16
  1
Color_1
330
100
 90
        8
 62
     3
370
    -3
331
16
  1
Color_3
330
101
 90
        8
 62
     2
370
    -3
331
16
  1
Color_2
330
102
 90
        8
 62
     4
370
    -3
331
16
  1
Color_4
  0
XRECORD
  5
126
102
{ACAD_REACTORS
330
FC
102
}
330
FC
100
AcDbXrecord
280
     1
 91
     1023
301

290
     0
302
TOP_COPPER
330
10
 90
        8
 62
     7
370
    -3
331
16
  1
Color_7
330
FE
 90
        8
 62
     1
370
    -3
331
16
  1
Color_1
330
100
 90
        8
 62
     3
370
    -3
331
16
  1
Color_3
330
101
 90
        8
 62
     2
370
    -3
331
16
  1
Color_2
330
102
 90
        8
 62
     4
370
    -3
331
16
  1
Color_4
  0
XRECORD
  5
12F
102
{ACAD_REACTORS
330
FC
102
}
330
FC
100
AcDbXrecord
280
     1
 91
     1023
301

290
     0
302
TOP_COPPER
330
10
 90
       10
 62
     7
370
    -3
331
16
  1
Color_7
330
FE
 90
        8
 62
     1
370
    -3
331
16
  1
Color_1
330
100
 90
        8
 62
     3
370
    -3
331
16
  1
Color_3
330
101
 90
        8
 62
     2
370
    -3
331
16
  1
Color_2
330
102
 90
        8
 62
     4
370
    -3
331
16
  1
Color_4
  0
XRECORD
  5
130
102
{ACAD_REACTORS
330
FC
102
}
330
FC
100
AcDbXrecord
280
     1
 91
     1023
301

290
     0
302
TOP_COPPER
330
10
 90
        8
 62
     7
370
    -3
331
16
  1
Color_7
330
FE
 90
        8
 62
     1
370
    -3
331
16
  1
Color_1
330
100
 90
        8
 62
     3
370
    -3
331
16
  1
Color_3
330
101
 90
        8
 62
     2
370
    -3
331
16
  1
Color_2
330
102
 90
        8
 62
     4
370
    -3
331
16
  1
Color_4
  0
ENDSEC
  0
EOF
